<svg xmlns="http://www.w3.org/2000/svg" width="48" height="48" viewBox="0 0 48 48">
  <g id="comment-next-outline" transform="translate(-939 -314)">
    <rect id="Rectangle_6664" data-name="Rectangle 6664" width="48" height="48" transform="translate(939 314)" fill="#ededed" opacity="0"/>
    <g id="comment-next-outline-2" data-name="comment-next-outline" transform="translate(939 314)">
      <path id="Path_2130" data-name="Path 2130" d="M40,4H8A4.012,4.012,0,0,0,4,8V32a4.012,4.012,0,0,0,4,4h8v6a1.89,1.89,0,0,0,2,2h1a2.16,2.16,0,0,0,1.4-.6L27.8,36H40a4.012,4.012,0,0,0,4-4V8a4.012,4.012,0,0,0-4-4m0,28H26.2L20,38.2V32H8V8H40V32M24,28Z"/>
    </g>
  </g>
</svg>
