<svg xmlns="http://www.w3.org/2000/svg" width="48" height="48" viewBox="0 0 48 48">
  <g id="extra-life" transform="translate(-864 -313)">
    <rect id="Rectangle_6663" data-name="Rectangle 6663" width="48" height="48" transform="translate(864 313)" fill="#ededed" opacity="0"/>
    <g id="extra-life-2" data-name="extra-life" transform="translate(864 313)">
      <path id="Path_2132" data-name="Path 2132" d="M20,38a1.89,1.89,0,0,1-2-2V34a2,2,0,0,1,4,0v2a1.89,1.89,0,0,1-2,2m10-2V34a2,2,0,0,0-4,0v2a2,2,0,0,0,2,2,1.89,1.89,0,0,0,2-2M44,24c0,5.2-3.2,9.8-8,12.8V40a4,4,0,0,1-4,4H16a4,4,0,0,1-4-4V36.8c-4.8-3-8-7.6-8-12.8a20,20,0,0,1,40,0M14,20a5.968,5.968,0,0,0-3-5.2A14.923,14.923,0,0,0,8,24a6.8,6.8,0,0,0,.2,2A6.115,6.115,0,0,0,14,20m4-2a6,6,0,0,0,12,0,6,6,0,0,0-12,0M32,40V31a33.684,33.684,0,0,0-8-1,33.684,33.684,0,0,0-8,1v9H32m7.8-14a6.8,6.8,0,0,0,.2-2,14.923,14.923,0,0,0-3-9.2A5.968,5.968,0,0,0,34,20,6.115,6.115,0,0,0,39.8,26Z"/>
    </g>
  </g>
</svg>
