<svg xmlns="http://www.w3.org/2000/svg" width="48" height="48" viewBox="0 0 48 48">
  <g id="facebook" transform="translate(-1077 -314)">
    <rect id="Rectangle_6666" data-name="Rectangle 6666" width="48" height="48" transform="translate(1077 314)" fill="#ededed" opacity="0"/>
    <g id="facebook-2" data-name="facebook" transform="translate(1082 319)">
      <g id="Group_5685" data-name="Group 5685">
        <path id="Path_20700" data-name="Path 20700" d="M0,19.106A19.226,19.226,0,0,0,15.833,38V24.277h-4.75V19h4.75V14.777c0-4.75,3.061-7.388,7.389-7.388a28.666,28.666,0,0,1,4.221.421v4.856H25.017c-2.323,0-2.85,1.161-2.85,2.639V19h5.067l-.844,5.277H22.167V38A19.145,19.145,0,0,0,19,0,19.109,19.109,0,0,0,0,19.106Z" fill-rule="evenodd"/>
      </g>
    </g>
  </g>
</svg>
