<svg xmlns="http://www.w3.org/2000/svg" width="48" height="48" viewBox="0 0 48 48">
  <g id="twitter" transform="translate(-1146 -315)">
    <rect id="Rectangle_6667" data-name="Rectangle 6667" width="48" height="48" transform="translate(1146 315)" fill="#ededed" opacity="0"/>
    <g id="twitter-2" data-name="twitter" transform="translate(1150.442 323.407)">
      <g id="Group_5721" data-name="Group 5721" transform="translate(0 0.003)">
        <g id="Group_5720" data-name="Group 5720">
          <g id="Group_5719" data-name="Group 5719">
            <path id="Path_20729" data-name="Path 20729" d="M34.968,7.855v1a22.616,22.616,0,0,1-1.506,8.08A24.718,24.718,0,0,1,29.171,24.2a20.684,20.684,0,0,1-7.213,5.341,22.822,22.822,0,0,1-9.724,2.054A22.258,22.258,0,0,1,0,28.032q.913.091,1.917.091a15.872,15.872,0,0,0,9.952-3.378,8.073,8.073,0,0,1-4.7-1.643,7.642,7.642,0,0,1-2.785-3.926,6,6,0,0,0,1.461.183,6.1,6.1,0,0,0,2.1-.365,7.777,7.777,0,0,1-4.565-2.739,7.621,7.621,0,0,1-1.826-5.022v-.091a8.637,8.637,0,0,0,3.652,1A7.707,7.707,0,0,1,1.643,5.481a7.662,7.662,0,0,1,1.1-4.017A22.959,22.959,0,0,0,10,7.307a22.494,22.494,0,0,0,9.176,2.465,9.29,9.29,0,0,1-.183-1.826,7.652,7.652,0,0,1,2.328-5.615A7.652,7.652,0,0,1,26.934,0a7.793,7.793,0,0,1,5.843,2.465A16.721,16.721,0,0,0,37.89.551a7.675,7.675,0,0,1-3.561,4.382,16.89,16.89,0,0,0,4.656-1.187A17.157,17.157,0,0,1,34.968,7.855Z" transform="translate(0 -0.003)"/>
          </g>
        </g>
      </g>
    </g>
  </g>
</svg>
