<svg xmlns="http://www.w3.org/2000/svg" xmlns:xlink="http://www.w3.org/1999/xlink" width="970.7" height="502.919" viewBox="0 0 970.7 502.919">
  <defs>
    <clipPath id="clip-path">
      <path id="パス_18703" data-name="パス 18703" d="M85.7,436.1V366.5h-6v69.7l.8-.2.5-1.5h2.1l1.2,1.5Z"/>
    </clipPath>
  </defs>
  <g id="d_wall19" transform="translate(-383 -10898.723)">
    <path id="パス_18696" data-name="パス 18696" d="M99.1,171.3c107.4,18.9,328.6,27.2,806.9,34.6l.9,35.9c-74,2.2-333.9-1.9-408.8-1.9-35.7,0-108,1.5-208.3,1.5-105.4,0-191.3-16.3-191.3-16.3" transform="translate(413 10727.423)" fill="#6dcbf1" opacity="0.4"/>
    <text id="觀測點_人耳高度_與測試原型距離變化所測得的分貝數值_每位置測五次平均值_單位dB_" data-name="觀測點（人耳高度）與測試原型距離變化所測得的分貝數值，每位置測五次平均值(單位dB)。" transform="translate(498.667 11369.396)" fill="#717071" font-size="14" font-family="YuGothicUI-Regular, Yu Gothic UI" letter-spacing="0.1em"><tspan x="0" y="0">觀測點（人耳高度）與測試原型距離變化所測得的分貝數</tspan><tspan y="0" font-family="MicrosoftJhengHeiUIRegular, Microsoft JhengHei UI">值</tspan><tspan y="0">，每位置測五次平均</tspan><tspan y="0" font-family="MicrosoftJhengHeiUIRegular, Microsoft JhengHei UI">值</tspan><tspan y="0" font-family="SegoeUI, Segoe UI">(</tspan><tspan y="0">單位</tspan><tspan y="0" font-family="SegoeUI, Segoe UI">dB)</tspan><tspan y="0">。</tspan></text>
    <g id="グループ_2684" data-name="グループ 2684" transform="translate(413 10727.423)">
      <g id="グループ_2683" data-name="グループ 2683">
        <path id="パス_18697" data-name="パス 18697" d="M246,387.7v.1s.1,0,0-.1Z"/>
        <path id="パス_18698" data-name="パス 18698" d="M259,387.8v0Z"/>
        <path id="パス_18699" data-name="パス 18699" d="M247.2,387.7h0v0Z"/>
        <ellipse id="楕円形_617" data-name="楕円形 617" cx="5.1" cy="4.8" rx="5.1" ry="4.8" transform="translate(248.604 379.448) rotate(-89.509)"/>
        <path id="パス_18700" data-name="パス 18700" d="M263.3,384.3c0-2-2.1-3.6-3.9-3.6l-13.2-.1a3.441,3.441,0,0,0-3.3,3.5v.3l-.1,17.4a1.6,1.6,0,0,0,3.2,0l.1-14v-.1h0c.1-.2.2-.4.4-.4h.2a.43.43,0,0,1,.4.4h0v.1h0l-.1,17.3v3.4l-.2,22.3a2.546,2.546,0,0,0,2.4,2.1,2.649,2.649,0,0,0,2.4-1.9l.2-22.3a1.122,1.122,0,0,1,2.2,0l-.2,22.3a2.411,2.411,0,0,0,4.8.2l.2-22.6v-3L259,388v-.1h0c.1-.2.2-.4.4-.4h.2c.2,0,.3.2.4.4h0l-.1,14.1a1.6,1.6,0,0,0,3.2,0l.1-17.4v-.1C263.3,384.4,263.3,384.4,263.3,384.3Z"/>
      </g>
    </g>
    <text id="_1m" data-name="1m" transform="translate(468.222 11160.78)" fill="#666" font-size="13.34" font-family="MicrosoftJhengHeiRegular, Microsoft JhengHei"><tspan x="0" y="0">1m</tspan></text>
    <g id="グループ_2694" data-name="グループ 2694" transform="translate(413 10727.423)">
      <path id="パス_18701" data-name="パス 18701" d="M85.7,435.8V333.5h-6V435.9l.8.3.5-1.7h1.9l1.4,1.6Z" fill="#d3a23c"/>
      <g id="グループ_2693" data-name="グループ 2693">
        <g id="グループ_2685" data-name="グループ 2685" clip-path="url(#clip-path)">
          <path id="パス_18702" data-name="パス 18702" d="M96.4,383.4,68.6,395l-.9-1.7,27.8-11.6Z"/>
        </g>
        <g id="グループ_2686" data-name="グループ 2686" clip-path="url(#clip-path)">
          <path id="パス_18704" data-name="パス 18704" d="M96.4,388,68.6,399.6l-.9-1.7,27.8-11.6Z"/>
        </g>
        <g id="グループ_2687" data-name="グループ 2687" clip-path="url(#clip-path)">
          <path id="パス_18706" data-name="パス 18706" d="M96.4,392.6,68.6,404.1l-.9-1.6,27.8-11.6Z"/>
        </g>
        <g id="グループ_2688" data-name="グループ 2688" clip-path="url(#clip-path)">
          <path id="パス_18708" data-name="パス 18708" d="M96.4,397.2,68.6,408.7l-.9-1.6,27.8-11.6Z"/>
        </g>
        <g id="グループ_2689" data-name="グループ 2689" clip-path="url(#clip-path)">
          <path id="パス_18710" data-name="パス 18710" d="M96.4,401.8,68.6,413.3l-.9-1.6,27.8-11.6Z"/>
        </g>
        <g id="グループ_2690" data-name="グループ 2690" clip-path="url(#clip-path)">
          <path id="パス_18712" data-name="パス 18712" d="M96.4,406.4,68.6,417.9l-.9-1.6,27.8-11.6Z"/>
        </g>
        <g id="グループ_2691" data-name="グループ 2691" clip-path="url(#clip-path)">
          <path id="パス_18714" data-name="パス 18714" d="M96.4,411,68.6,422.5l-.9-1.6,27.8-11.6Z"/>
        </g>
        <g id="グループ_2692" data-name="グループ 2692" clip-path="url(#clip-path)">
          <path id="パス_18716" data-name="パス 18716" d="M96.4,415.6,68.6,427.1l-.9-1.7,27.8-11.5Z"/>
        </g>
      </g>
    </g>
    <g id="グループ_2699" data-name="グループ 2699" transform="translate(413 10727.423)" opacity="0.6">
      <g id="グループ_2698" data-name="グループ 2698">
        <g id="グループ_2697" data-name="グループ 2697">
          <g id="グループ_2696" data-name="グループ 2696">
            <g id="グループ_2695" data-name="グループ 2695">
              <path id="パス_18718" data-name="パス 18718" d="M939.6,435.9c1.4,0,.9-.1,1.1-.1C938.3,435.9,939.6,435.9,939.6,435.9Z" fill="#1b1b1b"/>
              <path id="パス_18719" data-name="パス 18719" d="M916.6,436.1h.5l-3.4.1Z" fill="#1b1b1b"/>
              <path id="パス_18720" data-name="パス 18720" d="M895.2,436.1c2,.1,7.8,0,11.6,0h.6l1.7-.1C904.5,436.1,898.5,436.1,895.2,436.1Z" fill="#1b1b1b"/>
              <path id="パス_18721" data-name="パス 18721" d="M883.8,435.8c.7.1-2.5,0,2.7,0h-2.7Z" fill="#1b1b1b"/>
              <path id="パス_18722" data-name="パス 18722" d="M886,435.8Z" fill="#1b1b1b"/>
              <path id="パス_18723" data-name="パス 18723" d="M875.5,435.8h3c-.6,0-3.3,0-2.3-.1C873.2,435.8,873.8,435.8,875.5,435.8Z" fill="#1b1b1b"/>
              <path id="パス_18724" data-name="パス 18724" d="M872.7,435.9h0Z" fill="#1b1b1b"/>
              <path id="パス_18725" data-name="パス 18725" d="M877.5,435.9h-3.3a6.847,6.847,0,0,0,1.5,0Z" fill="#1b1b1b"/>
              <path id="パス_18726" data-name="パス 18726" d="M879.4,435.9c1.7,0,3.8,0,.8.1C885.9,436,885.1,435.9,879.4,435.9Z" fill="#1b1b1b"/>
              <path id="パス_18727" data-name="パス 18727" d="M894.1,436.2h4.1C897.3,436.3,894,436.2,894.1,436.2Z" fill="#1b1b1b"/>
              <path id="パス_18728" data-name="パス 18728" d="M857,435.8c-.2,0,1,.1,1.2.1h2.2C859.3,435.8,857.2,435.8,857,435.8Z" fill="#1b1b1b"/>
              <path id="パス_18729" data-name="パス 18729" d="M858.2,435.9h0Z" fill="#1b1b1b"/>
              <path id="パス_18730" data-name="パス 18730" d="M872.2,436.1l5.4-.1-6.4.1Z" fill="#1b1b1b"/>
              <path id="パス_18731" data-name="パス 18731" d="M844.5,435.8l1.8-.1-3.3.1Z" fill="#1b1b1b"/>
              <path id="パス_18732" data-name="パス 18732" d="M836.2,435.8c1.4-.1-1.9-.1-.4-.1-2.3,0-4.2.1-5.9.1C831.6,435.7,833.6,435.7,836.2,435.8Z" fill="#1b1b1b"/>
              <path id="パス_18733" data-name="パス 18733" d="M826.9,435.8c.9,0,1.9,0,2.9-.1A28.1,28.1,0,0,1,826.9,435.8Z" fill="#1b1b1b"/>
              <path id="パス_18734" data-name="パス 18734" d="M849.4,435.9c-.3,0-.7-.1-2.6-.1l1.3.1Z" fill="#1b1b1b"/>
              <path id="パス_18735" data-name="パス 18735" d="M848.1,435.9Z" fill="#1b1b1b"/>
              <path id="パス_18736" data-name="パス 18736" d="M849.7,435.9h0Z" fill="#1b1b1b"/>
              <path id="パス_18737" data-name="パス 18737" d="M863.6,436c-1.9,0-6,.1-2.1.2C862.9,436.1,860.7,436.1,863.6,436Z" fill="#1b1b1b"/>
              <path id="パス_18738" data-name="パス 18738" d="M851.3,436h3.5c-.1,0-.7-.1.3-.1Z" fill="#1b1b1b"/>
              <path id="パス_18739" data-name="パス 18739" d="M849.6,436.1l1.7-.1H850Z" fill="#1b1b1b"/>
              <path id="パス_18740" data-name="パス 18740" d="M832.9,435.9h0Z" fill="#1b1b1b"/>
              <path id="パス_18741" data-name="パス 18741" d="M840.3,435.9h0Z" fill="#1b1b1b"/>
              <path id="パス_18742" data-name="パス 18742" d="M809.5,435.9h0Z" fill="#1b1b1b"/>
              <path id="パス_18743" data-name="パス 18743" d="M834.2,436h0Z" fill="#1b1b1b"/>
              <path id="パス_18744" data-name="パス 18744" d="M821.8,435.9h2.6A21.877,21.877,0,0,0,821.8,435.9Z" fill="#1b1b1b"/>
              <path id="パス_18745" data-name="パス 18745" d="M839.4,435.9h0Z" fill="#1b1b1b"/>
              <path id="パス_18746" data-name="パス 18746" d="M839.4,435.9a12.122,12.122,0,0,0-2,.1h2.5A.749.749,0,0,0,839.4,435.9Z" fill="#1b1b1b"/>
              <path id="パス_18747" data-name="パス 18747" d="M803.9,436.5c.3-.1,4.2-.1,7.6-.1,3.4-.1,1.2-.3-1.8-.4a22.9,22.9,0,0,1-3.6.1c1.2,0,7.7.1,4.7.2-4.6,0-3.7,0-6-.1,1.9.1-5.8.1-4.8.3h4C804.3,436.4,802.8,436.4,803.9,436.5Z" fill="#1b1b1b"/>
              <path id="パス_18748" data-name="パス 18748" d="M816.4,436h1.4c-1.6,0-2.8,0-4.9-.1a26.291,26.291,0,0,0-3,.1h6.5Z" fill="#1b1b1b"/>
              <path id="パス_18749" data-name="パス 18749" d="M824.1,436c-1.1.1-4.5.1-2.4.2,4.2,0,2.9-.1,5.4-.1-6.7,0,2-.1-3-.1h.4c-.1-.1-.2-.1-.4,0h0Z" fill="#1b1b1b"/>
              <path id="パス_18750" data-name="パス 18750" d="M857.9,436.4h0Z" fill="#1b1b1b"/>
              <path id="パス_18751" data-name="パス 18751" d="M855.2,436.3h2.5c1.4,0,0,0,.1.1,1,0,3.4-.1.3-.1h-.5c-2.7,0-6.2-.1-5.7-.1C852.7,436.2,853.4,436.2,855.2,436.3Z" fill="#1b1b1b"/>
              <path id="パス_18752" data-name="パス 18752" d="M839.5,436.2h-5.6l2.9.1h-.1C839.8,436.2,839.1,436.2,839.5,436.2Z" fill="#1b1b1b"/>
              <path id="パス_18753" data-name="パス 18753" d="M808.9,435.9l.7-.1-3.2.1Z" fill="#1b1b1b"/>
              <path id="パス_18754" data-name="パス 18754" d="M801.6,435.9l.2-.1-1.9.1Z" fill="#1b1b1b"/>
              <path id="パス_18755" data-name="パス 18755" d="M390.5,436.9h0Z" fill="#1b1b1b"/>
              <path id="パス_18756" data-name="パス 18756" d="M402.4,436.9h.3C402.1,436.8,401.9,436.9,402.4,436.9Z" fill="#1b1b1b"/>
              <path id="パス_18757" data-name="パス 18757" d="M622.6,435.9a43.961,43.961,0,0,0-4.8-.1l.7.1Z" fill="#1b1b1b"/>
              <path id="パス_18758" data-name="パス 18758" d="M500.1,436.4h.7c.6,0,1.1-.1,1.6-.1A16.949,16.949,0,0,1,500.1,436.4Z" fill="#1b1b1b"/>
              <path id="パス_18759" data-name="パス 18759" d="M498.4,436.8l-3.2-.1C496,436.7,497,436.7,498.4,436.8Z" fill="#1b1b1b"/>
              <path id="パス_18760" data-name="パス 18760" d="M325.3,436.9l-1.9.1C326.4,437,325.1,437,325.3,436.9Z" fill="#1b1b1b"/>
              <path id="パス_18761" data-name="パス 18761" d="M727,435.9c-2.1,0-3.7,0-5.2-.1A50.874,50.874,0,0,0,727,435.9Z" fill="#1b1b1b"/>
              <path id="パス_18762" data-name="パス 18762" d="M395.1,436c-1,0-1.4,0-1.4.1C394.8,436,395.4,436,395.1,436Z" fill="#1b1b1b"/>
              <path id="パス_18763" data-name="パス 18763" d="M715.8,435.9h6C719.9,435.9,717.8,435.8,715.8,435.9Z" fill="#1b1b1b"/>
              <path id="パス_18764" data-name="パス 18764" d="M89.1,436.9h0Z" fill="#1b1b1b"/>
              <path id="パス_18765" data-name="パス 18765" d="M35.4,436h0Z" fill="#1b1b1b"/>
              <path id="パス_18766" data-name="パス 18766" d="M772.3,435.9Z" fill="#1b1b1b"/>
              <path id="パス_18767" data-name="パス 18767" d="M779.8,436.2h0Z" fill="#1b1b1b"/>
              <path id="パス_18768" data-name="パス 18768" d="M700.4,436.4h0Z" fill="#1b1b1b"/>
              <path id="パス_18769" data-name="パス 18769" d="M774.6,435.9h0Z" fill="#1b1b1b"/>
              <path id="パス_18770" data-name="パス 18770" d="M774.3,435.9h0Z" fill="#1b1b1b"/>
              <path id="パス_18771" data-name="パス 18771" d="M770.1,435.9h0Z" fill="#1b1b1b"/>
              <path id="パス_18772" data-name="パス 18772" d="M215.7,436.6h-.3C213.8,436.7,214.5,436.7,215.7,436.6Z" fill="#1b1b1b"/>
              <path id="パス_18773" data-name="パス 18773" d="M582.4,436.8h0Z" fill="#1b1b1b"/>
              <path id="パス_18774" data-name="パス 18774" d="M576.9,436.8c2.4-.1,3.7-.1,5.5-.1l-1.8-.2Z" fill="#1b1b1b"/>
              <path id="パス_18775" data-name="パス 18775" d="M361.9,436.9l3.9.1c-4.7.1-8.1.1-4.4.2.6-.3,15.1,0,15.7-.3l2.6.1h-1.6c5,.1,3.7-.2,10.1-.2,2.2,0,3.8.1,2.3.1l5-.1c1.5,0,1.1.1-.3,0h7.5c1.1,0,3.6-.1,4.8-.1,1.9,0-1,0-.5.1l4.2-.1c1.7.1-1.8.1-4.7.1,3.9.3,3.5-.1,12,.1h-4c2.6.1,5.7.1,10.2.2-1.1,0-9-.2-4.4-.3h5.5a10.757,10.757,0,0,0,1.6.1h3.9l-.3.1a48.764,48.764,0,0,0,4.9-.2,39.779,39.779,0,0,1,5.3.2c5.8,0-4-.2,2.9-.2,4.8,0,8.3,0,14-.1,3.4,0-.6.1.6.1l3-.1h.4c2.5,0,.2-.1,4.2-.2,1.1-.1,8.2.2,13.1,0,1.2,0-.6.1-.2.1,6.8-.1,5.8-.1,11.4-.2l4.7.1c-3.5-.1,1-.2,4.9-.3-1.2,0-2.3-.1-3-.1l6.2-.1c.8,0,.1.1-.9.1h1.1c2.2,0,1.1.1-.5.2-.8,0-1.5-.1-2.2-.1-1.5.1-3,.2-2.6.2h2c-.4,0-.7,0-.5.1h1.9l1.4.1.3-.1,8.1.1c5.8-.1,10.9-.3,20.1-.4-2.3.1-.5.2-.6.3-2.5-.1-7.1.1-11.9,0,2.5,0,1.9.1,1.3.1l8.5-.1a26.674,26.674,0,0,0,4,.1c-1.7-.2,6.4-.1,9.8-.2.2.1-.6.1-4.8.1,4.7.1,6-.2,10.6-.1h-2c2.4-.1,8.3,0,6.9,0h-1c6.9,0,20.9,0,21.9-.2a7,7,0,0,1-1.3.2l12.2-.6c-1.1.1,3.1.5-2.6.6h7.1c-1.1,0-2.8-.2-1.3-.2,4.2.2,2.9.1,8.1.2-1.7,0,.2-.3,2.8-.2-.4,0,.2.2-.7.2l6.6-.2c-1.6,0-.3.2,1.2.2h7.4l-2.8-.1c7.4,0,7.3-.3,14.7-.3-.9,0-2.2.3,1.5.3,1.7-.1,7.6-.5,14.1-.6l1.2.1,5-.1c-3.1.2-11.8.5-16.6.7,2.8,0,.8.1,4.9.1,1.5.1-2.3.1-3.5.1H642c-.4-.1,7.4-.1,7-.2l-10.5.1a124.769,124.769,0,0,1,12.9-.3c1.7.1-1.3.2-1.2.3.9,0,6.5-.1,7.1-.1l-2.9.1c3.8,0,6.2-.2,10.8,0,1.6,0,4.7.2,5,.1-2.6-.1-3.1-.6-1.4-.7.6,0,8.3.1,10.1.2,2.6.1-3.9.3-1.7.4.1,0,1.5-.1,2.1-.1,1.7,0-.7.1,2.9.1.6-.1,7.4,0,1.7-.1h7.9c-1.3-.1,3.7-.3,7.3-.3a4.536,4.536,0,0,0,1,.1c7.2,0,11.1,0,17.9.1.6,0,3.9.1,2.5.1,1,0,1.9-.1,3.9-.1,4,.1-4.6,0-1.6.2.3-.1,5.4-.1,8.4-.2-.9-.1-6.9,0-9.8,0a14.251,14.251,0,0,1,3.5-.2c2.2-.1,5.2-.1,8.8-.2,5.6,0,2.4.1,3.4.1,10.5,0,9-.3,17.7-.2,3.5.1.2.2.9.3-4.6,0-7-.1-10.1-.1h3.8c-1.5,0-4.5.1-6.2,0,2.9.1,17.8,0,25.9.1a16.25,16.25,0,0,0,2.8-.1h-2.6c-2.4-.1,4.8-.1,1.6-.2,3.5-.1,7.3-.2,12.2-.1l.9.1c-.1,0-3.2-.1-4.5,0,2-.1,7.5.2,9.7,0l-3.4-.1c3.5-.1,7.8-.2,12.1-.1-2-.1-1,0-4.1-.1,2.7.2-11,0-6.8.2-3.1-.2-5.4-.1-9.5-.2.1,0,1.5.1-2.2.1h-.7a7.192,7.192,0,0,1,1.8.1c-1.8.1-7.5.1-9.5.1-2.1,0,.9,0-.3-.1l-2.9.1c-.3-.1-5.7-.1-.6-.2h-4.5c-2.7,0-6.4-.1-8.6,0-2.1,0-5.4.1-3.6,0l-7.1.1h-.1c-7,0-14.5.1-22.5,0h-8.8l-.8-.1c-3,0-9.1-.1-10.4,0-3.3-.2-14.8,0-20.1-.1l-.2.1c-3.7,0-7.2,0-11.8.1l.3.1c-3.9.1-10.1-.1-16.4-.1h3.1c-7.5-.2-15.7.1-22.5,0h-9.9l-.8-.1H618c-1.9,0-1.5,0-.5.1a20.119,20.119,0,0,0-2.6.1c-1.5-.1-5.1.1-7.2-.1-1.3.1-9.7.1-10.7.2h-5.8l-.9-.1-4.7.2c-2.9-.1-4-.1-1.2-.2-6.9.1-5.5.1-11.4.2l.3-.1c-2.1,0-5.4.1-6.7,0-4.7-.1-23,0-35-.2,2.3.2-5.6-.1-6,.1-.7-.1-2.4-.1-.4-.1-6.1.1-9.2-.1-13.4.1-.7-.1,1.3-.1.7-.1h-2.6c-.6,0,.9,0,1.9-.1-6.2,0-6.9.2-7.3.3-3.2-.1-4.7-.1-7,0-1.1-.1-2.9-.1.9-.1h-7.5c-3.1,0-5.9,0-6,.1H472.5c-1.9.1-4,0-7.9.1h.1c-8.9-.1-3.8.1-12.6-.1l.5.1c-.8.2-7.8-.1-12.8,0l1.8.1c-2.8.1-7.8-.3-10.5-.3h1.8c-7.3-.1-.9.1-6.4.1-1-.1,1.3-.2-2.4-.2-1.8-.1-10.6.2-15.6.1,1.1.1,2.2.1-.3.1-3.9,0-10.5-.2-14,0h-.7c-3,0-9.6.1-11.4.2-1.4-.2-6-.1-10.2-.1h-5.7a10.476,10.476,0,0,1-2.5-.1h-8.9c-5.8,0-7.9.1-9.9.1-1.3,0-.4,0-.3-.1-8.5-.1-9.3,0-16.5.1l-.7-.1c-1.9.1-12.3-.1-20.6,0h.9c-9.4.1-22.4-.3-25.9.1l-6.2.1c8,0-1.2.2,2.1.2-3.1,0-8.1-.1-4.3-.1h.6c1.4-.2-9.9-.1-9.7-.2-15.7,0-31.1-.1-45.9-.1l1.7.1H215c-1.4,0-1.8-.1,1.9-.1h-3.8c-1.3,0-2.4.1-2.4.1-7.2-.1,2.8-.2.6-.2H209c-2.4.1-2.6.1-7.1.1a22.769,22.769,0,0,1-2.5-.1h-8.1l2.6.1c-2.9.1-6.1,0-3.1.1-4.4-.2-24.2-.1-26.9-.1-4,.1-8,.1-12.9.1,1.2,0,2,.1-2.3.1,1.6-.3-7.8-.1-11.2-.3,3.1.1-12.1,0-7.3.2-3.5,0-.2-.1-2.9-.2-8.4.1-18.6-.1-29,0-.2,0,1.6.1-.7.1l-5.5-.2c-2.1,0-1.9.2-5.7.1.5,0,1.3.1-.1.1-6.2,0-12.4,0-18.7-.1H48.5l-.6,1.6.5,2.1-.9.5-.6,2.6-.5-1.4.4-1.6-.9-1.2H44.5l.2.6,1.8-1.8-1-1.4c-2.2,0-4.3-.1-6.5-.1,2.8.1.9.1-1.2.1,1.4,0,0,.1.2.1l-8.7-.1c-1.6.1-9.3,0-10.2.1h2.7c-3.7.1,5.1.3,4.6.5,4.1-.2,10.8.2,17.5,0,1.5,0-1.3.1-.5.1a9.15,9.15,0,0,0,1.6-.1,4.233,4.233,0,0,1,.5.7l-1.4,1.4-.4.4h1.7c.2.2.3.5.5.7l-.2-.3c.1.1.2.2.2.3a15.461,15.461,0,0,1-.4,1.5c.5,1.3.9,2.5,1.3,3.5.3-1.6.7-3.1,1-4.4.4-.2.7-.4,1.1-.6a20.48,20.48,0,0,1-.5-2.4c.1-.3.3-.7.4-1,4,0,8.1,0,13.9.1l-.9-.1c2.6,0,3.1,0,4.3.1,3-.1-7.3,0-4.6-.2,3.4.2,18.2,0,20.5.2,4,0-1.2-.1,2.8-.1l1.1.1,1-.1c2.6,0,3.9.1,4,.1H88.4c3.4.1,9.5,0,10.7,0H95.3c10.8-.1,24.1,0,34.6-.1h-.8c8-.1,6.4,0,15.2,0H144c1.8,0,4.1-.1,6.5-.1-2.2.1,4.2.1,1.3.2,8.7-.1,4.3-.1,10-.2l1.3.1c2-.1,2.1-.1,6.5-.1-3.6.1,2.8.1-1.2.2,9.2.2,13.7-.2,17.9.1,4.2-.2-8-.1-5.6-.2-2-.1,3.5-.1,6.4-.1s5,.3,12.4.2H198c2.8.1,5.4-.1,8.8,0,1.9-.1,4.4,0,5-.1H205c3.8,0,7.5-.2,13.8-.1-.5,0-2.4.1-3.7.1h5.5c-.5.2-8.2,0-12.4.1,2,.1,7.8-.1,5.7.1,3-.2,7.3,0,12.3-.1l-.3.1c.8,0,2.4-.1,3.9-.1l-2.6.1c4.1-.1,7.8.1,11.7,0-8.1,0-1.8-.1-5.3-.2,10-.1,5.8.2,17,.2-1.5,0-5.7-.1-3.3-.1,2.1,0,5,.1,6.3.1,7.5,0-1.1-.1,2-.1,2.5.1,3.7,0,6.9-.1v.1c8.5.1,2.3-.2,9.9-.1l-3.2.1h4l-.8.1c4.3-.1,5.7-.1,9.9,0-1-.1.6-.2,4.3-.2a21.983,21.983,0,0,0,3.9.1,37.3,37.3,0,0,1-4.8,0c-.3,0-1.2.1-1.4.1,2.8.1,6.9,0,8.9,0h-2.1l7.7-.1c1.2,0,.3.1-.7.1,1.6,0,2.7,0,5-.1a13.893,13.893,0,0,1-3.7.2l7.4-.1c.5,0,3.8.1,2.8.1,4.1,0,10-.1,15.4-.1h2c5.1,0,9.6.1,15.6,0l3.4.1c4.7,0-4.6-.2,3.2-.2,5.6,0,2.1.1,4,.2,2.8-.1,7.6-.2,12.7-.1A9.748,9.748,0,0,1,361.9,436.9Zm58.2-.1c-1.1,0-3.4.1-4.2,0C417.2,436.7,418.2,436.8,420.1,436.8Zm88.6-.2h0Zm246.6-.7h0Zm5.2.1h0Zm-561.3,0h1C197.9,436.1,198.5,436,199.2,436Z" fill="#1b1b1b"/>
              <path id="パス_18776" data-name="パス 18776" d="M498.6,436.7c-.3,0-.4,0-.5-.1C497.7,436.7,497.7,436.7,498.6,436.7Z" fill="#1b1b1b"/>
              <path id="パス_18777" data-name="パス 18777" d="M325.7,436.9h0Z" fill="#1b1b1b"/>
              <path id="パス_18778" data-name="パス 18778" d="M679.6,436.8h-2.1C677.4,436.7,677.9,436.8,679.6,436.8Z" fill="#1b1b1b"/>
              <path id="パス_18779" data-name="パス 18779" d="M788.2,435.8h-.3C787.8,435.9,787.2,435.8,788.2,435.8Z" fill="#1b1b1b"/>
              <path id="パス_18780" data-name="パス 18780" d="M817.3,436.4h1.4C816.6,436.3,815.2,436.4,817.3,436.4Z" fill="#1b1b1b"/>
              <path id="パス_18781" data-name="パス 18781" d="M791.3,436.1a33.111,33.111,0,0,0,4.7,0h-4.7Z" fill="#1b1b1b"/>
              <path id="パス_18782" data-name="パス 18782" d="M796.6,436.2h2.2A11.946,11.946,0,0,0,796.6,436.2Z" fill="#1b1b1b"/>
              <path id="パス_18783" data-name="パス 18783" d="M767.2,435.9c1.1,0,.7-.1,1.3-.1C769.7,435.8,761.1,436,767.2,435.9Z" fill="#1b1b1b"/>
              <path id="パス_18784" data-name="パス 18784" d="M793.2,436.4l-.8-.1-1.3.1Z" fill="#1b1b1b"/>
              <path id="パス_18785" data-name="パス 18785" d="M774.7,436.3h0Z" fill="#1b1b1b"/>
              <path id="パス_18786" data-name="パス 18786" d="M779.5,436.3h0Z" fill="#1b1b1b"/>
              <path id="パス_18787" data-name="パス 18787" d="M788.1,436.4h0Z" fill="#1b1b1b"/>
              <path id="パス_18788" data-name="パス 18788" d="M734.4,436.3h-4.1a9.41,9.41,0,0,0,2.2,0Z" fill="#1b1b1b"/>
              <path id="パス_18789" data-name="パス 18789" d="M746.8,436.6a8.159,8.159,0,0,1-1.8-.1l-.1.1Z" fill="#1b1b1b"/>
              <path id="パス_18790" data-name="パス 18790" d="M734.9,436.6c-.4,0-5.9.1-.8.1C734.5,436.7,738.6,436.6,734.9,436.6Z" fill="#1b1b1b"/>
              <path id="パス_18791" data-name="パス 18791" d="M673.2,436.4h1.1l-.2-.2Z" fill="#1b1b1b"/>
              <path id="パス_18792" data-name="パス 18792" d="M618.9,436.9c4.8,0,1.2-.1,5.5-.1,1.1,0-3.6,0-2.4-.1C619.1,436.8,617.6,436.8,618.9,436.9Z" fill="#1b1b1b"/>
              <path id="パス_18793" data-name="パス 18793" d="M622,436.8h0Z" fill="#1b1b1b"/>
              <path id="パス_18794" data-name="パス 18794" d="M24,435.9h0Z" fill="#1b1b1b"/>
              <path id="パス_18795" data-name="パス 18795" d="M18,436.1l-.7-.1-1.9.1A22.532,22.532,0,0,1,18,436.1Z" fill="#1b1b1b"/>
              <path id="パス_18796" data-name="パス 18796" d="M428.8,437.1h0Z" fill="#1b1b1b"/>
              <path id="パス_18797" data-name="パス 18797" d="M386.5,437h.8l-1.4-.1Z" fill="#1b1b1b"/>
              <path id="パス_18798" data-name="パス 18798" d="M351,437.1h4.6C352.5,437.1,350.7,437,351,437.1Z" fill="#1b1b1b"/>
            </g>
          </g>
        </g>
      </g>
    </g>
    <path id="パス_18799" data-name="パス 18799" d="M57.4,400.4l.3-4.5-4.8-.1.1-3.2-7.9-.3-.1,3.2-3.3-.1-.2,4.5,2.4.1-.5,14.9h-.8l-.1,3.4,5.1.2L47,436.1h1.1l.6-17.6,5.1.2.1-3.4h-.8l.5-14.9Zm-11.7-7.3,6.6.2-.1,2.4-6.6-.2Z" transform="translate(413 10727.423)"/>
    <line id="線_408" data-name="線 408" y1="209" transform="translate(512.2 10954.923)" fill="none" stroke="#534741" stroke-miterlimit="10" stroke-width="1"/>
    <line id="線_409" data-name="線 409" y1="206" transform="translate(549.2 10957.923)" fill="none" stroke="#534741" stroke-miterlimit="10" stroke-width="1"/>
    <line id="線_410" data-name="線 410" y1="198" transform="translate(604.2 10965.923)" fill="none" stroke="#534741" stroke-miterlimit="10" stroke-width="1"/>
    <line id="線_411" data-name="線 411" y2="194" transform="translate(704.2 10969.923)" fill="none" stroke="#534741" stroke-miterlimit="10" stroke-width="1"/>
    <line id="線_412" data-name="線 412" y2="198" transform="translate(913.2 10965.923)" fill="none" stroke="#534741" stroke-miterlimit="10" stroke-width="1"/>
    <text id="_0.6" data-name="0.6" transform="translate(502.439 11205.567)" fill="#474747" font-size="14" font-family="SegoeUI, Segoe UI" letter-spacing="0.1em"><tspan x="0" y="0">0.6</tspan></text>
    <text id="_92" data-name="92" transform="translate(504.039 11255.367)" fill="#474747" font-size="14" font-family="SegoeUI, Segoe UI" letter-spacing="0.1em"><tspan x="0" y="0">92</tspan></text>
    <text id="_71" data-name="71" transform="translate(504.039 11288.167)" fill="#474747" font-size="14" font-family="SegoeUI, Segoe UI" letter-spacing="0.1em"><tspan x="0" y="0">71</tspan></text>
    <text id="_21" data-name="21" transform="translate(504.039 11320.968)" fill="#474747" font-size="14" font-family="SegoeUI, Segoe UI" letter-spacing="0.1em"><tspan x="0" y="0">21</tspan></text>
    <text id="_1.2" data-name="1.2" transform="translate(537.526 11205.567)" fill="#474747" font-size="14" font-family="SegoeUI, Segoe UI" letter-spacing="0.1em"><tspan x="0" y="0">1.2</tspan></text>
    <text id="_89" data-name="89" transform="translate(539.126 11255.367)" fill="#474747" font-size="14" font-family="SegoeUI, Segoe UI" letter-spacing="0.1em"><tspan x="0" y="0">89</tspan></text>
    <text id="_70" data-name="70" transform="translate(539.126 11288.167)" fill="#474747" font-size="14" font-family="SegoeUI, Segoe UI" letter-spacing="0.1em"><tspan x="0" y="0">70</tspan></text>
    <text id="_19" data-name="19" transform="translate(539.126 11320.968)" fill="#474747" font-size="14" font-family="SegoeUI, Segoe UI" letter-spacing="0.1em"><tspan x="0" y="0">19</tspan></text>
    <text id="_2.4" data-name="2.4" transform="translate(593.8 11205.567)" fill="#474747" font-size="14" font-family="SegoeUI, Segoe UI" letter-spacing="0.1em"><tspan x="0" y="0">2.4</tspan></text>
    <text id="_88" data-name="88" transform="translate(595.4 11255.367)" fill="#474747" font-size="14" font-family="SegoeUI, Segoe UI" letter-spacing="0.1em"><tspan x="0" y="0">88</tspan></text>
    <text id="_68" data-name="68" transform="translate(595.4 11288.167)" fill="#474747" font-size="14" font-family="SegoeUI, Segoe UI" letter-spacing="0.1em"><tspan x="0" y="0">68</tspan></text>
    <text id="_20" data-name="20" transform="translate(595.4 11320.968)" fill="#474747" font-size="14" font-family="SegoeUI, Segoe UI" letter-spacing="0.1em"><tspan x="0" y="0">20</tspan></text>
    <text id="_4.8" data-name="4.8" transform="translate(694.439 11205.567)" fill="#474747" font-size="14" font-family="SegoeUI, Segoe UI" letter-spacing="0.1em"><tspan x="0" y="0">4.8</tspan></text>
    <text id="_86" data-name="86" transform="translate(696.039 11255.367)" fill="#474747" font-size="14" font-family="SegoeUI, Segoe UI" letter-spacing="0.1em"><tspan x="0" y="0">86</tspan></text>
    <text id="_67" data-name="67" transform="translate(696.039 11288.167)" fill="#474747" font-size="14" font-family="SegoeUI, Segoe UI" letter-spacing="0.1em"><tspan x="0" y="0">67</tspan></text>
    <text id="_19-2" data-name="19" transform="translate(696.039 11320.968)" fill="#474747" font-size="14" font-family="SegoeUI, Segoe UI" letter-spacing="0.1em"><tspan x="0" y="0">19</tspan></text>
    <text id="_9.6" data-name="9.6" transform="translate(905.255 11206.817)" fill="#474747" font-size="14" font-family="SegoeUI, Segoe UI" letter-spacing="0.1em"><tspan x="0" y="0">9.6</tspan></text>
    <text id="_84" data-name="84" transform="translate(906.855 11256.617)" fill="#474747" font-size="14" font-family="SegoeUI, Segoe UI" letter-spacing="0.1em"><tspan x="0" y="0">84</tspan></text>
    <text id="_68-2" data-name="68" transform="translate(906.855 11289.417)" fill="#474747" font-size="14" font-family="SegoeUI, Segoe UI" letter-spacing="0.1em"><tspan x="0" y="0">68</tspan></text>
    <text id="_16" data-name="16" transform="translate(906.855 11322.218)" fill="#474747" font-size="14" font-family="SegoeUI, Segoe UI" letter-spacing="0.1em"><tspan x="0" y="0">16</tspan></text>
    <text id="_19.2" data-name="19.2" transform="translate(1305.382 11220.15)" fill="#474747" font-size="14" font-family="SegoeUI, Segoe UI" letter-spacing="0.1em"><tspan x="0" y="0">19.2</tspan></text>
    <text id="_80" data-name="80" transform="translate(1311.082 11259.95)" fill="#474747" font-size="14" font-family="SegoeUI, Segoe UI" letter-spacing="0.1em"><tspan x="0" y="0">80</tspan></text>
    <text id="_67-2" data-name="67" transform="translate(1311.082 11292.75)" fill="#474747" font-size="14" font-family="SegoeUI, Segoe UI" letter-spacing="0.1em"><tspan x="0" y="0">67</tspan></text>
    <text id="_14" data-name="14" transform="translate(1311.082 11325.551)" fill="#474747" font-size="14" font-family="SegoeUI, Segoe UI" letter-spacing="0.1em"><tspan x="0" y="0">14</tspan></text>
    <line id="線_413" data-name="線 413" y1="54" transform="translate(512.2 10899.923)" fill="none" stroke="#be1d21" stroke-miterlimit="10" stroke-width="1"/>
    <line id="線_414" data-name="線 414" y1="211" transform="translate(512.2 10953.923)" fill="none" stroke="#be1d21" stroke-miterlimit="10" stroke-width="1"/>
    <line id="線_415" data-name="線 415" y1="260" transform="translate(549.2 10904.923)" fill="none" stroke="#be1d21" stroke-miterlimit="10" stroke-width="1"/>
    <line id="線_416" data-name="線 416" y1="254" transform="translate(604.2 10910.923)" fill="none" stroke="#be1d21" stroke-miterlimit="10" stroke-width="1"/>
    <line id="線_417" data-name="線 417" y1="247" transform="translate(704.2 10917.923)" fill="none" stroke="#be1d21" stroke-miterlimit="10" stroke-width="1"/>
    <line id="線_418" data-name="線 418" y1="239" transform="translate(913.2 10925.923)" fill="none" stroke="#be1d21" stroke-miterlimit="10" stroke-width="1"/>
    <line id="線_419" data-name="線 419" y2="231" transform="translate(1319.2 10933.923)" fill="none" stroke="#be1d21" stroke-miterlimit="10" stroke-width="1"/>
    <path id="パス_18800" data-name="パス 18800" d="M99.1,172.3c107.4,18.9,329.1,27.2,807.4,34.6" transform="translate(413 10727.423)" fill="none" stroke="#be1d21" stroke-miterlimit="10" stroke-width="1.378"/>
    <line id="線_420" data-name="線 420" x2="3" transform="translate(437.7 10903.923)" fill="none"/>
    <text id="環境噪音:62.4" transform="translate(498.667 11397.642)" fill="#717071" font-size="14" font-family="YuGothicUI-Regular, Yu Gothic UI" letter-spacing="0.1em"><tspan x="0" y="0">環境噪音</tspan><tspan y="0" font-family="SegoeUI, Segoe UI">:62.4</tspan></text>
    <path id="パス_18801" data-name="パス 18801" d="M769.4,217.5" transform="translate(413 10727.423)" fill="#6dcbf1"/>
    <text id="距離" transform="translate(431 11205.568)" fill="#474747" font-size="14" font-family="YuGothicUI-Regular, Yu Gothic UI" letter-spacing="0.1em"><tspan x="0" y="0">距離</tspan></text>
    <text id="原始分貝值" transform="translate(395 11255.368)" fill="#474747" font-size="14" font-family="YuGothicUI-Regular, Yu Gothic UI" letter-spacing="0.1em"><tspan x="0" y="0">原始分貝</tspan><tspan y="0" font-family="MicrosoftJhengHeiUIRegular, Microsoft JhengHei UI">值</tspan></text>
    <text id="除噪後分貝數" transform="translate(383 11288.168)" fill="#474747" font-size="14" font-family="YuGothicUI-Regular, Yu Gothic UI" letter-spacing="0.1em"><tspan x="0" y="0">除噪後分貝數</tspan></text>
    <text id="降低分貝數" transform="translate(395 11320.969)" fill="#474747" font-size="14" font-family="YuGothicUI-Regular, Yu Gothic UI" letter-spacing="0.1em"><tspan x="0" y="0">降低分貝數</tspan></text>
    <line id="線_421" data-name="線 421" x2="928" transform="translate(418.7 11226.423)" fill="none" stroke="#909090" stroke-miterlimit="10" stroke-width="1"/>
  </g>
</svg>
