<svg xmlns="http://www.w3.org/2000/svg" width="712.251" height="153.072" viewBox="0 0 712.251 153.072">
  <g id="d_wall4" transform="translate(-1110.006 -834.052)">
    <text id="Organize_and_store_construction_tools" data-name="Organize and store construction tools" transform="translate(1568.258 978.978)" fill="#050505" font-size="12" font-family="NotoSans-Regular, Noto Sans"><tspan x="0" y="0">Organize and store construction tools</tspan></text>
    <text id="Protect_construction_workers_and_residents_from_noisy_environment" data-name="Protect construction workers and residents 
from noisy environment" transform="translate(1185.49 883.937)" fill="#050505" font-size="12" font-family="NotoSans-Regular, Noto Sans"><tspan x="0" y="0">Protect construction workers and residents </tspan><tspan x="0" y="16">from noisy environment</tspan></text>
    <text id="Protect_construction_workers_and_passers-by." data-name="Protect construction workers and passers-by." transform="translate(1568.258 880.624)" fill="#050505" font-size="12" font-family="NotoSans-Regular, Noto Sans"><tspan x="0" y="0">Protect construction workers and passers-by.</tspan></text>
    <text id="Easy_to_move_fast_deployment" data-name="Easy to move, fast deployment" transform="translate(1185.49 983.124)" fill="#050505" font-size="12" font-family="NotoSans-Regular, Noto Sans"><tspan x="0" y="0">Easy to move, fast deployment</tspan></text>
    <text id="整合施工人員的施工工具" transform="translate(1565.797 959)" fill="#050505" font-size="15" font-family="YuGothicUI-Regular, Yu Gothic UI" letter-spacing="0.1em"><tspan x="0" y="0">整合施工人員的施工工具</tspan></text>
    <text id="保護施工人員與居民於噪音環境" transform="translate(1181.797 865.488)" fill="#050505" font-size="15" font-family="YuGothicUI-Regular, Yu Gothic UI" letter-spacing="0.1em"><tspan x="0" y="0">保護施工人員與居民於噪音環境</tspan></text>
    <text id="方便移動_快速部署" data-name="方便移動，快速部署" transform="translate(1184.258 962.956)" fill="#050505" font-size="15" font-family="YuGothicUI-Regular, Yu Gothic UI" letter-spacing="0.1em"><tspan x="0" y="0">方便移動，快速部署</tspan></text>
    <text id="保護施工人員以及用路人安全" transform="translate(1565.797 862.248)" fill="#050505" font-size="15" font-family="YuGothicUI-Regular, Yu Gothic UI" letter-spacing="0.1em"><tspan x="0" y="0">保護施工人員以及用路人安全</tspan></text>
    <path id="パス_18094" data-name="パス 18094" d="M51.526,30.468a2.381,2.381,0,1,1,2.381-2.381,2.424,2.424,0,0,1-2.381,2.381m.366-8.607a3.642,3.642,0,0,1-2.014-.824c-2.381-2.2-4.67-4.578-6.867-6.959a2.9,2.9,0,0,1-.641-2.106,8.691,8.691,0,0,0-4.212-9.065,7.627,7.627,0,0,0-7.417-.092A39.427,39.427,0,0,0,34.129,6.2c1.465,1.465,1.557,3.113.183,4.487a2.968,2.968,0,0,1-4.3-.183c-1.19-1.1-2.2-2.381-3.479-3.663-2.472,5.769,1.282,12.087,7.05,11.812a7.477,7.477,0,0,1,6.776,3.113,35.283,35.283,0,0,0,3.2,3.2A6.116,6.116,0,0,1,45.757,29c.366,3.2,3.3,5.219,6.684,4.853a6,6,0,0,0,5.219-6.135,6.142,6.142,0,0,0-5.769-5.86" transform="translate(1463.547 950.079)"/>
    <g id="グループ_2232" data-name="グループ 2232" transform="translate(1131.096 829.493)">
      <path id="パス_18095" data-name="パス 18095" d="M364.4,50.014c-5.413,0-7.714-3.789-5.007-8.525L380.1,5.627c2.706-4.736,7.172-4.736,10.014,0l20.569,35.861c2.706,4.736.541,8.525-5.007,8.525Z" transform="translate(1.86 4.559)" fill="#fff" stroke="#d64850" stroke-miterlimit="10" stroke-width="4.148"/>
      <path id="パス_18096" data-name="パス 18096" d="M370.947,26.668a19.207,19.207,0,0,1-2.247-1.5s.15-.749.3-.749h3.295c-.15.3,0,0,.15-.15.749-4.194,3.295-5.392,7.339-4.942a41.677,41.677,0,0,0,7.489,0,2.468,2.468,0,0,1,3,2.1,21.657,21.657,0,0,0,1.348,3.295c1.048-.15,2.1-.3,3-.449.15,0,.449.749.449.9-.6.449-1.348.9-2.1,1.5,2.846,2.1,1.348,5.242,1.2,7.938a2.265,2.265,0,0,1-1.8,1.647c-7.039.15-13.929,0-20.968.15a1.741,1.741,0,0,1-1.947-1.947c.15-2.7-1.348-5.691,1.5-7.788m2.247-.6h17.523c-1.348-5.242-1.348-5.242-6.29-5.242h-4.194c-5.242,0-5.242,0-7.039,4.793q-.225,0,0,.449m3.594,3.595c.6,4.942,1.2,5.242,7.339,4.793,1.8-.15,2.7-1.8,2.7-4.793Zm16.625.15c-1.048-.6-1.5-1.2-2.1-1.2-.6.15-.9.749-1.5,1.2.6.449,1.048,1.2,1.648,1.2.449.3,1.048-.449,1.947-1.2m-19.021,0c-1.048-.6-1.5-1.2-2.1-1.2s-.9.749-1.5,1.2c.6.449,1.048,1.2,1.648,1.348.449.15,1.048-.6,1.947-1.348" transform="translate(5.196 8.544)" fill="#252424" fill-rule="evenodd"/>
      <path id="パス_18097" data-name="パス 18097" d="M369.5,31.3h4.643a13.491,13.491,0,0,1-.3,1.947,8.163,8.163,0,0,1-3.295.15c-.449,0-.6-1.2-1.048-2.1" transform="translate(5.595 14.546)" fill="#252424" fill-rule="evenodd"/>
      <path id="パス_18098" data-name="パス 18098" d="M382.3,31.3h4.643c-.15.749-.15,1.8-.449,1.947a8.78,8.78,0,0,1-3.445.15c-.3,0-.449-1.2-.749-2.1" transform="translate(11.965 14.546)" fill="#252424" fill-rule="evenodd"/>
    </g>
    <g id="run-fast" transform="translate(1109 939.871)">
      <path id="パス_20644" data-name="パス 20644" d="M33,11a4,4,0,1,0-4-4,4,4,0,0,0,4,4M25.8,38.8l2-8.8L32,34V46h4V31l-4.2-4L33,21a14.6,14.6,0,0,0,11,5V22a9.827,9.827,0,0,1-8.6-4.8l-2-3.2A4.019,4.019,0,0,0,30,12c-.6,0-1,.2-1.6.2L18,16.6V26h4V19.2l3.6-1.4L22.4,34l-9.8-2-.8,4,14,2.8M8,18a2,2,0,0,1,0-4h6v4H8m2-8a2,2,0,0,1,0-4H20v4H10M6,26a2,2,0,1,1,0-4h8v4Z"/>
    </g>
    <g id="toolbox" transform="translate(1508.643 937)">
      <path id="前面オブジェクトで型抜き_144" data-name="前面オブジェクトで型抜き 144" d="M35.039,13.139H6.887C4.862,11.248,2.714,9.061.126,6.257A1.479,1.479,0,0,1,0,6.113V0H13.14V4.38H21.9V0H35.039V13.138Z" transform="translate(0 19.14)"/>
      <path id="パス_20648" data-name="パス 20648" d="M21,21h4.38v4.38H21Z" transform="translate(-5.67 -4.05)"/>
      <path id="パス_20649" data-name="パス 20649" d="M24.09,10.38V6H10.95v4.38H0v6.57H13.14V14.76H21.9v2.19h13.14V10.38Zm-10.95,0V8.19H21.9v2.19Z" transform="translate(0)"/>
    </g>
    <g id="NoiseCancelationOff" transform="translate(1110.006 838.611)">
      <path id="パス_20645" data-name="パス 20645" d="M0,18H3v3H0Zm6-6H9v9H6Zm6-9h3V21H12Zm6,6h3V21H18Zm9,12H24V18h3Zm18,0H42V18h3ZM0,24H3v3H0Zm6,0H9v9H6Zm6,0h3V42H12Zm6,0h3V36H18Zm9,3H24V24h3Zm12-6H36V18h3Zm-6,0H30V18h3Zm4.5,6a10.255,10.255,0,0,1,4.09.82,10.523,10.523,0,0,1,5.59,5.59,10.607,10.607,0,0,1,0,8.181,10.523,10.523,0,0,1-5.59,5.59,10.607,10.607,0,0,1-8.181,0,10.523,10.523,0,0,1-5.59-5.59,10.607,10.607,0,0,1,0-8.181,10.523,10.523,0,0,1,5.59-5.59A10.255,10.255,0,0,1,37.5,27ZM30,37.5a7.348,7.348,0,0,0,.586,2.918,7.469,7.469,0,0,0,4,4A7.348,7.348,0,0,0,37.5,45a7.465,7.465,0,0,0,2.156-.316,7.324,7.324,0,0,0,1.969-.926L31.246,33.379a7.324,7.324,0,0,0-.926,1.969A7.465,7.465,0,0,0,30,37.5Zm13.759,4.125a7.324,7.324,0,0,0,.926-1.969A7.465,7.465,0,0,0,45,37.5a7.141,7.141,0,0,0-.6-2.907,7.682,7.682,0,0,0-4-4A7.141,7.141,0,0,0,37.5,30a7.465,7.465,0,0,0-2.156.316,7.324,7.324,0,0,0-1.969.926Z"/>
    </g>
  </g>
</svg>
