<svg xmlns="http://www.w3.org/2000/svg" width="332.7" height="133.107" viewBox="0 0 332.7 133.107">
  <g id="d_wall16" transform="translate(-351 -8726.211)">
    <g id="グループ_2395" data-name="グループ 2395" transform="translate(36 5161.423)">
      <g id="グループ_2389" data-name="グループ 2389">
        <g id="グループ_2388" data-name="グループ 2388" opacity="0.6">
          <path id="パス_18429" data-name="パス 18429" d="M647.7,3649.5H392.8l-2.7,6.7,2.7,11-5,2.7-4,17.6-4.6-12.2,2-7.9-3.8-4.9-6.3-.2,7.9-7.9-3.6-4.9H315" fill="none" stroke="#231815" stroke-miterlimit="10" stroke-width="6"/>
        </g>
        <path id="パス_18430" data-name="パス 18430" d="M364.9,3649.6c0-.5-.1-1-.1-1.6a20.3,20.3,0,0,1,40.6,0,8.6,8.6,0,0,1-.1,1.6" fill="none" stroke="#f29a17" stroke-miterlimit="10" stroke-width="2.815"/>
        <path id="パス_18431" data-name="パス 18431" d="M430.1,3576.4s23.5,8.7,23.5,28.6v41.4h26.6" fill="none" stroke="#f29a17" stroke-miterlimit="10" stroke-width="3"/>
        <path id="パス_18432" data-name="パス 18432" d="M591.1,3567.6s26.6,9.9,26.6,32.4v46.8h30" fill="none" stroke="#f29a17" stroke-miterlimit="10" stroke-width="6"/>
        <path id="パス_18433" data-name="パス 18433" d="M395.2,3616.1l.2-5.6-4.2-.2.2-4-9.9-.4-.1,4-4.2-.2-.2,5.6,3,.1-.7,18.4h-1l-.2,4.2,6.4.2-.8,21.8,1.4.1.8-21.8,6.4.2.2-4.2h-1l.7-18.4Zm-13-9,8.4.3-.1,2.9-8.4-.3Z" fill="#1d2086"/>
      </g>
      <g id="グループ_2394" data-name="グループ 2394">
        <g id="グループ_2390" data-name="グループ 2390">
          <path id="パス_18434" data-name="パス 18434" d="M485.9,3632.2h13.5c.5-8,6.8-14.4,14.5-14.4a14.678,14.678,0,0,1,13,8.4v-7.6a7.33,7.33,0,0,0-5.5-3.1l-2.2-14.4h.6v-1.9H493.3v1.9h4.3l-5.2,14.3h-6.5m23.6.1H497.3l1.6-1.7,1,1a.865.865,0,0,0,.6.3.713.713,0,0,0,.6-.3.967.967,0,0,0,0-1.4l-3-3.2a.854.854,0,0,0-1.3,0,.967.967,0,0,0,0,1.4l.8.8-2.7,2.9c-.1.1-.1.1-.1.2h-.5l5.1-13.8h10.1Zm1.8,0v-13.8h6.1l2.1,13.8Z" fill="#1d2086"/>
          <rect id="長方形_1015" data-name="長方形 1015" width="43.9" height="20.9" transform="translate(483.9 3594.9)" fill="#fff"/>
        </g>
        <g id="グループ_2391" data-name="グループ 2391">
          <path id="パス_18435" data-name="パス 18435" d="M526.7,3633.3a15.262,15.262,0,0,0-.3-3,1.735,1.735,0,0,0,.3-1.4,1.386,1.386,0,0,0-1.1-1.1,13.345,13.345,0,0,0-3.1-4.6,1.5,1.5,0,0,0-.5-1.5,1.222,1.222,0,0,0-1.6-.1,11.946,11.946,0,0,0-4.9-1.7c-.2-.6-.6-1.1-1.2-1.1a1.4,1.4,0,0,0-1.5,1.1,12.483,12.483,0,0,0-4.7,1.6,1.361,1.361,0,0,0-1.7-.3,1.588,1.588,0,0,0-.6,2,16.017,16.017,0,0,0-3,4.2,1.411,1.411,0,0,0-1.5.8,1.71,1.71,0,0,0,.6,2,16.475,16.475,0,0,0-.4,3.2,5.7,5.7,0,0,0,.1,1.3,1.476,1.476,0,0,0-.8,1.6,1.4,1.4,0,0,0,1.4,1.2,13.506,13.506,0,0,0,2.4,4.6,1.66,1.66,0,0,0,.2,1.9,1.388,1.388,0,0,0,1.8.2,11.513,11.513,0,0,0,6.5,2.7,1.389,1.389,0,0,0,2.6,0,12.521,12.521,0,0,0,5-1.8,1.217,1.217,0,0,0,1.6,0,1.574,1.574,0,0,0,.5-1.7,14.167,14.167,0,0,0,2.9-4.3,1.392,1.392,0,0,0,1.1-1,1.768,1.768,0,0,0-.3-1.6C526.5,3635.3,526.7,3634.3,526.7,3633.3Zm-12.6,9.6c-5,0-9-4.3-9-9.6s4-9.6,9-9.6,9,4.3,9,9.6C523,3638.6,519,3642.9,514.1,3642.9Z" fill="#1d2086"/>
        </g>
        <g id="グループ_2392" data-name="グループ 2392">
          <ellipse id="楕円形_435" data-name="楕円形 435" cx="5.4" cy="5.7" rx="5.4" ry="5.7" transform="translate(508.7 3627.6)" fill="#1d2086"/>
        </g>
        <g id="グループ_2393" data-name="グループ 2393">
          <path id="パス_18436" data-name="パス 18436" d="M491.3,3631.1a6.919,6.919,0,1,0,6.4,6.9A6.694,6.694,0,0,0,491.3,3631.1Zm0,9.9a3.007,3.007,0,1,1,2.8-3A2.908,2.908,0,0,1,491.3,3641Z" fill="#1d2086"/>
        </g>
        <path id="パス_18437" data-name="パス 18437" d="M520,3601.7a2.906,2.906,0,0,0-2.8-3H493a2.908,2.908,0,0,0-2.8,3v14a2.906,2.906,0,0,0,2.8,3h24.2a2.908,2.908,0,0,0,2.8-3Z" fill="#1d2086"/>
      </g>
    </g>
    <g id="グループ_2399" data-name="グループ 2399" transform="translate(36 5161.423)">
      <g id="グループ_2396" data-name="グループ 2396">
        <path id="パス_18438" data-name="パス 18438" d="M545.9,3621.5c0,4-1.5,7.2-3.4,7.2s-3.4-3.2-3.4-7.2" fill="none" stroke="#c20d23" stroke-miterlimit="10" stroke-width="1"/>
        <path id="パス_18439" data-name="パス 18439" d="M532.3,3621.7c0-4,1.5-7.2,3.4-7.2s3.4,3.2,3.4,7.2" fill="none" stroke="#c20d23" stroke-miterlimit="10" stroke-width="1"/>
      </g>
      <g id="グループ_2397" data-name="グループ 2397">
        <path id="パス_18440" data-name="パス 18440" d="M559.4,3621.3c0,4-1.5,7.2-3.4,7.2s-3.4-3.2-3.4-7.2" fill="none" stroke="#c20d23" stroke-miterlimit="10" stroke-width="1"/>
        <path id="パス_18441" data-name="パス 18441" d="M545.9,3621.5c0-4,1.5-7.2,3.4-7.2s3.4,3.2,3.4,7.2" fill="none" stroke="#c20d23" stroke-miterlimit="10" stroke-width="1"/>
      </g>
      <g id="グループ_2398" data-name="グループ 2398">
        <path id="パス_18442" data-name="パス 18442" d="M573,3621.4c0,4-1.5,7.2-3.4,7.2s-3.4-3.2-3.4-7.2" fill="none" stroke="#c20d23" stroke-miterlimit="10" stroke-width="1"/>
        <path id="パス_18443" data-name="パス 18443" d="M559.4,3621.6c0-4,1.5-7.2,3.4-7.2s3.4,3.2,3.4,7.2" fill="none" stroke="#c20d23" stroke-miterlimit="10" stroke-width="1"/>
      </g>
    </g>
    <g id="グループ_2403" data-name="グループ 2403" transform="translate(36 5161.423)">
      <g id="グループ_2400" data-name="グループ 2400">
        <path id="パス_18444" data-name="パス 18444" d="M408.5,3624.9c0,4-.9,7.2-2,7.2s-2-3.2-2-7.2" fill="none" stroke="#1d2086" stroke-miterlimit="10" stroke-width="1"/>
        <path id="パス_18445" data-name="パス 18445" d="M400.6,3625.1c0-4,.9-7.2,2-7.2s2,3.2,2,7.2" fill="none" stroke="#1d2086" stroke-miterlimit="10" stroke-width="1"/>
      </g>
      <g id="グループ_2401" data-name="グループ 2401">
        <path id="パス_18446" data-name="パス 18446" d="M416.4,3624.7c0,4-.9,7.2-2,7.2s-2-3.2-2-7.2" fill="none" stroke="#1d2086" stroke-miterlimit="10" stroke-width="1"/>
        <path id="パス_18447" data-name="パス 18447" d="M408.5,3624.9c0-4,.9-7.2,2-7.2s2,3.2,2,7.2" fill="none" stroke="#1d2086" stroke-miterlimit="10" stroke-width="1"/>
      </g>
      <g id="グループ_2402" data-name="グループ 2402">
        <path id="パス_18448" data-name="パス 18448" d="M424.3,3624.8c0,4-.9,7.2-2,7.2s-2-3.2-2-7.2" fill="none" stroke="#1d2086" stroke-miterlimit="10" stroke-width="1"/>
        <path id="パス_18449" data-name="パス 18449" d="M416.4,3625c0-4,.9-7.2,2-7.2s2,3.2,2,7.2" fill="none" stroke="#1d2086" stroke-miterlimit="10" stroke-width="1"/>
      </g>
    </g>
    <g id="グループ_2407" data-name="グループ 2407" transform="translate(36 5161.423)">
      <g id="グループ_2404" data-name="グループ 2404">
        <path id="パス_18450" data-name="パス 18450" d="M432.2,3624.9c0,4-.9,7.2-2,7.2s-2-3.2-2-7.2" fill="none" stroke="#1d2086" stroke-miterlimit="10" stroke-width="1"/>
        <path id="パス_18451" data-name="パス 18451" d="M424.3,3625.1c0-4,.9-7.2,2-7.2s2,3.2,2,7.2" fill="none" stroke="#1d2086" stroke-miterlimit="10" stroke-width="1"/>
      </g>
      <g id="グループ_2405" data-name="グループ 2405">
        <path id="パス_18452" data-name="パス 18452" d="M440.1,3624.7c0,4-.9,7.2-2,7.2s-2-3.2-2-7.2" fill="none" stroke="#1d2086" stroke-miterlimit="10" stroke-width="1"/>
        <path id="パス_18453" data-name="パス 18453" d="M432.2,3624.9c0-4,.9-7.2,2-7.2s2,3.2,2,7.2" fill="none" stroke="#1d2086" stroke-miterlimit="10" stroke-width="1"/>
      </g>
      <g id="グループ_2406" data-name="グループ 2406">
        <path id="パス_18454" data-name="パス 18454" d="M448,3624.8c0,4-.9,7.2-2,7.2s-2-3.2-2-7.2" fill="none" stroke="#1d2086" stroke-miterlimit="10" stroke-width="1"/>
        <path id="パス_18455" data-name="パス 18455" d="M440.1,3625c0-4,.9-7.2,2-7.2s2,3.2,2,7.2" fill="none" stroke="#1d2086" stroke-miterlimit="10" stroke-width="1"/>
      </g>
    </g>
    <g id="グループ_2411" data-name="グループ 2411" transform="translate(36 5161.423)">
      <g id="グループ_2408" data-name="グループ 2408">
        <path id="パス_18456" data-name="パス 18456" d="M586.5,3621.8c0,4-1.5,7.2-3.4,7.2s-3.4-3.2-3.4-7.2" fill="none" stroke="#c20d23" stroke-miterlimit="10" stroke-width="1"/>
        <path id="パス_18457" data-name="パス 18457" d="M573,3622c0-4,1.5-7.2,3.4-7.2s3.4,3.2,3.4,7.2" fill="none" stroke="#c20d23" stroke-miterlimit="10" stroke-width="1"/>
      </g>
      <g id="グループ_2409" data-name="グループ 2409">
        <path id="パス_18458" data-name="パス 18458" d="M600.1,3621.5c0,4-1.5,7.2-3.4,7.2s-3.4-3.2-3.4-7.2" fill="none" stroke="#c20d23" stroke-miterlimit="10" stroke-width="1"/>
        <path id="パス_18459" data-name="パス 18459" d="M586.5,3621.7c0-4,1.5-7.2,3.4-7.2s3.4,3.2,3.4,7.2" fill="none" stroke="#c20d23" stroke-miterlimit="10" stroke-width="1"/>
      </g>
      <g id="グループ_2410" data-name="グループ 2410">
        <path id="パス_18460" data-name="パス 18460" d="M613.6,3621.6c0,4-1.5,7.2-3.4,7.2s-3.4-3.2-3.4-7.2" fill="none" stroke="#c20d23" stroke-miterlimit="10" stroke-width="1"/>
        <path id="パス_18461" data-name="パス 18461" d="M600.1,3621.8c0-4,1.5-7.2,3.4-7.2s3.4,3.2,3.4,7.2" fill="none" stroke="#c20d23" stroke-miterlimit="10" stroke-width="1"/>
      </g>
    </g>
  </g>
</svg>
