<svg xmlns="http://www.w3.org/2000/svg" xmlns:xlink="http://www.w3.org/1999/xlink" width="712.7" height="429.665" viewBox="0 0 712.7 429.665">
  <defs>
    <clipPath id="clip-path">
      <path id="パス_18493" data-name="パス 18493" d="M515.8,3036.5v-41.7h-3.4v41.7l.8.4.5-.6H515l.4.5Z"/>
    </clipPath>
  </defs>
  <g id="d_wall15" transform="translate(-264.1 -8142.502)">
    <rect id="長方形_965" data-name="長方形 965" width="314.5" height="50.3" transform="translate(357.1 8467.423)" fill="none"/>
    <text id="設定音頻為1000hz噪音源_常見施工噪音頻_音頻提升藍線往上提升_隔噪效果提升_音頻降低藍線往下降低_隔噪效果降低_" data-name="設定音頻為1000hz噪音源（常見施工噪音頻）
音頻提升藍線往上提升，隔噪效果提升。
音頻降低藍線往下降低，隔噪效果降低。" transform="translate(357.064 8508.166)" fill="#8b8b8b" font-size="14" font-family="YuGothicUI-Regular, Yu Gothic UI" letter-spacing="0.1em"><tspan x="0" y="0">設定音頻為</tspan><tspan y="0" font-family="SegoeUI, Segoe UI">1000hz</tspan><tspan y="0">噪音源（常見施工噪音頻）</tspan><tspan y="0" font-family="SegoeUI, Segoe UI"></tspan><tspan x="0" y="30">音頻提升藍線往上提升，隔噪效果提升。</tspan><tspan y="30" font-family="SegoeUI, Segoe UI"></tspan><tspan x="0" y="60">音頻降低藍線往下降低，隔噪效果降低。</tspan></text>
    <rect id="長方形_1011" data-name="長方形 1011" width="519.7" height="125.4" transform="translate(264.1 8280.223)" fill="none"/>
    <rect id="長方形_1016" data-name="長方形 1016" width="220.2" height="64.6" transform="translate(545.2 8145.923)" fill="none"/>
    <text id="繞射" transform="translate(642.161 8157.502)" fill="#717071" font-size="14" font-family="YuGothicUI-Regular, Yu Gothic UI" letter-spacing="0.1em"><tspan x="0" y="0">繞射</tspan></text>
    <text id="Diffraction" transform="translate(621.761 8183.502)" fill="#717071" font-size="14" font-family="SegoeUI, Segoe UI" letter-spacing="0.1em"><tspan x="0" y="0">Diffraction</tspan></text>
    <g id="グループ_2417" data-name="グループ 2417" transform="translate(169 5410.423)">
      <g id="グループ_2416" data-name="グループ 2416">
        <path id="パス_18462" data-name="パス 18462" d="M518.8,2975.1a.757.757,0,0,0,.4.2" fill="none" stroke="#e63828" stroke-miterlimit="10" stroke-width="0.25"/>
        <path id="パス_18463" data-name="パス 18463" d="M523.5,2977.7a69.958,69.958,0,0,1,32.6,56.1" fill="none" stroke="#e63828" stroke-miterlimit="10" stroke-width="0.25" stroke-dasharray="0.971 4.855"/>
        <path id="パス_18464" data-name="パス 18464" d="M556.1,3036.3v.5" fill="none" stroke="#e63828" stroke-miterlimit="10" stroke-width="0.25"/>
      </g>
    </g>
    <path id="パス_18465" data-name="パス 18465" d="M416.5,3036.8A69.843,69.843,0,0,1,518.8,2975" transform="translate(169 5410.423)" fill="none" stroke="#e63828" stroke-miterlimit="10" stroke-width="0.858"/>
    <g id="グループ_2419" data-name="グループ 2419" transform="translate(169 5410.423)">
      <g id="グループ_2418" data-name="グループ 2418">
        <path id="パス_18466" data-name="パス 18466" d="M573.9,2941a1.38,1.38,0,0,0,.4.3" fill="none" stroke="#e63828" stroke-miterlimit="10" stroke-width="0.25"/>
        <path id="パス_18467" data-name="パス 18467" d="M577.8,2944.7a129.607,129.607,0,0,1,38.3,89.1" fill="none" stroke="#e63828" stroke-miterlimit="10" stroke-width="0.25" stroke-dasharray="0.998 4.992"/>
        <path id="パス_18468" data-name="パス 18468" d="M616.1,3036.3v.5" fill="none" stroke="#e63828" stroke-miterlimit="10" stroke-width="0.25"/>
      </g>
    </g>
    <path id="パス_18469" data-name="パス 18469" d="M356.4,3036.8A129.814,129.814,0,0,1,573.8,2941" transform="translate(169 5410.423)" fill="none" stroke="#e63828" stroke-miterlimit="10" stroke-width="0.858"/>
    <path id="パス_18470" data-name="パス 18470" d="M575.1,2790.5a261.213,261.213,0,0,1,83.5,49.3" transform="translate(169 5410.423)" fill="none" stroke="#e63828" stroke-miterlimit="10" stroke-width="0.858"/>
    <path id="パス_18471" data-name="パス 18471" d="M224.5,3036.8c0-112.6,71-208.5,170.7-245.5" transform="translate(169 5410.423)" fill="none" stroke="#e63828" stroke-miterlimit="10" stroke-width="0.858"/>
    <g id="グループ_2420" data-name="グループ 2420" transform="translate(169 5410.423)" opacity="0.6">
      <path id="パス_18472" data-name="パス 18472" d="M192.2,3036.8H483.3l1.1,1.6-2.5,2.5,2,.1,1.2,1.6-.6,2.5,1.5,3.9,1.2-5.6,1.6-.9-.9-3.5.9-2.2h319" fill="none" stroke="#040000" stroke-miterlimit="10" stroke-width="2"/>
    </g>
    <path id="パス_18473" data-name="パス 18473" d="M492.5,3012.3l.1-3.6-2.6-.1.1-2.6-6.2-.2-.1,2.6-2.6-.1-.1,3.6,1.9.1-.4,11.8H482l-.1,2.7,4,.1-.5,14h.9l.5-14,4,.1.1-2.7h-.6l.4-11.8Zm-8.2-5.7,5.3.2-.1,1.9-5.3-.2Z" transform="translate(169 5410.423)" fill="#040000"/>
    <g id="グループ_2422" data-name="グループ 2422" transform="translate(169 5410.423)">
      <g id="グループ_2421" data-name="グループ 2421">
        <path id="パス_18474" data-name="パス 18474" d="M545.9,2995.7v0Z" fill="#040000"/>
        <path id="パス_18475" data-name="パス 18475" d="M558.5,2995.8v0Z" fill="#040000"/>
        <path id="パス_18476" data-name="パス 18476" d="M547,2995.8Z" fill="#040000"/>
        <circle id="楕円形_436" data-name="楕円形 436" cx="4.6" cy="4.6" r="4.6" transform="translate(548.58 2988.3) rotate(-89.535)" fill="#040000"/>
        <path id="パス_18477" data-name="パス 18477" d="M562.6,2992.7c0-1.8-2-3.2-3.8-3.2l-12.9-.1a3.159,3.159,0,0,0-3.2,3.2v.3l-.1,15.7a1.55,1.55,0,0,0,1.6,1.4,1.476,1.476,0,0,0,1.6-1.3l.1-12.6v-.1h0c.1-.2.2-.4.4-.4h.2a.43.43,0,0,1,.4.4h0v.1h0l-.1,15.6v3l-.2,20.1a2.439,2.439,0,0,0,2.3,1.9,2.37,2.37,0,0,0,2.3-1.7l.2-20.1c0-.4.5-.8,1.1-.8s1.1.4,1.1.8l-.2,20.1a2.464,2.464,0,0,0,2.4,2.1,2.553,2.553,0,0,0,2.4-1.9l.2-20.4v-2.7l.1-16v-.1h0c.1-.2.2-.4.4-.4h.2c.2,0,.3.2.4.4h0l-.1,12.8a1.55,1.55,0,0,0,1.6,1.4,1.476,1.476,0,0,0,1.6-1.3l.1-15.7v-.1A1.575,1.575,0,0,1,562.6,2992.7Z" fill="#040000"/>
      </g>
    </g>
    <g id="グループ_2424" data-name="グループ 2424" transform="translate(169 5410.423)">
      <g id="グループ_2423" data-name="グループ 2423">
        <path id="パス_18478" data-name="パス 18478" d="M682.5,2995.7v.1s.1,0,0-.1Z" fill="#040000"/>
        <path id="パス_18479" data-name="パス 18479" d="M695.1,2995.8v0Z" fill="#040000"/>
        <path id="パス_18480" data-name="パス 18480" d="M683.6,2995.8Z" fill="#040000"/>
        <circle id="楕円形_437" data-name="楕円形 437" cx="4.6" cy="4.6" r="4.6" transform="translate(685.248 2988.266) rotate(-89.529)" fill="#040000"/>
        <path id="パス_18481" data-name="パス 18481" d="M699.3,2992.7c0-1.8-2-3.2-3.8-3.2l-12.9-.1a3.159,3.159,0,0,0-3.2,3.2v.3l-.1,15.7a1.55,1.55,0,0,0,1.6,1.4,1.476,1.476,0,0,0,1.6-1.3l.1-12.6v-.1h0c.1-.2.2-.4.4-.4h.2a.43.43,0,0,1,.4.4h0v.1h0l-.1,15.6v3l-.2,20.1a2.439,2.439,0,0,0,2.3,1.9,2.37,2.37,0,0,0,2.3-1.7l.2-20.1c0-.4.5-.8,1.1-.8s1.1.4,1.1.8l-.2,20.1a2.464,2.464,0,0,0,2.4,2.1,2.553,2.553,0,0,0,2.4-1.9l.2-20.4v-2.7l.1-16v-.1h0a.43.43,0,0,1,.4-.4h.2c.2,0,.3.2.4.4h0l-.1,12.8a1.55,1.55,0,0,0,1.6,1.4,1.476,1.476,0,0,0,1.6-1.3l.1-15.7v-.1A1.575,1.575,0,0,1,699.3,2992.7Z" fill="#040000"/>
      </g>
    </g>
    <g id="グループ_2426" data-name="グループ 2426" transform="translate(169 5410.423)">
      <g id="グループ_2425" data-name="グループ 2425">
        <path id="パス_18482" data-name="パス 18482" d="M459.7,2995.7v0Z" fill="#040000"/>
        <path id="パス_18483" data-name="パス 18483" d="M472.3,2995.8v0Z" fill="#040000"/>
        <path id="パス_18484" data-name="パス 18484" d="M460.8,2995.8Z" fill="#040000"/>
        <circle id="楕円形_438" data-name="楕円形 438" cx="4.6" cy="4.6" r="4.6" transform="translate(462.439 2988.366) rotate(-89.529)" fill="#040000"/>
        <path id="パス_18485" data-name="パス 18485" d="M476.5,2992.7c0-1.8-2-3.2-3.8-3.2l-12.9-.1a3.159,3.159,0,0,0-3.2,3.2v.3l-.1,15.7a1.55,1.55,0,0,0,1.6,1.4,1.476,1.476,0,0,0,1.6-1.3l.1-12.6v-.1h0c.1-.2.2-.4.4-.4h.2a.43.43,0,0,1,.4.4h0v.1h0l-.1,15.6v3l-.2,20.1a2.439,2.439,0,0,0,2.3,1.9,2.37,2.37,0,0,0,2.3-1.7l.2-20.1c0-.4.5-.8,1.1-.8s1.1.4,1.1.8l-.2,20.1a2.464,2.464,0,0,0,2.4,2.1,2.553,2.553,0,0,0,2.4-1.9l.2-20.4V3012l.1-16v-.1h0a.43.43,0,0,1,.4-.4h.2c.2,0,.3.2.4.4h0l-.1,12.8a1.55,1.55,0,0,0,1.6,1.4,1.476,1.476,0,0,0,1.6-1.3l.1-15.7v-.1A.772.772,0,0,1,476.5,2992.7Z" fill="#040000"/>
      </g>
    </g>
    <path id="パス_18486" data-name="パス 18486" d="M513.9,2975.3a13.092,13.092,0,0,0,4.7.2c8.5-.8,41-17.3,71.6-50.7a932.276,932.276,0,0,0,83.9-107.3" transform="translate(169 5410.423)" fill="none" stroke="#5ab0e1" stroke-miterlimit="10" stroke-width="0.858"/>
    <path id="パス_18487" data-name="パス 18487" d="M513.9,2976.9s3,1.9,9.7,1.2c9.1-.9,50.5-9.5,91.4-41.4,31.1-24.3,76.4-65.6,97.9-93.2" transform="translate(169 5410.423)" fill="none" stroke="#5ab0e1" stroke-miterlimit="10" stroke-width="0.858"/>
    <path id="パス_18488" data-name="パス 18488" d="M514.2,2981.4s4.9,6.4,47.3,6c34.7-.3,76.5-3.3,113.8-11.8,56.2-12.9,91.8-25.4,91.8-25.4" transform="translate(169 5410.423)" fill="none" stroke="#5ab0e1" stroke-miterlimit="10" stroke-width="0.858"/>
    <path id="パス_18489" data-name="パス 18489" d="M514.3,2999.9a111.026,111.026,0,0,0,35.3,21c23.2,8.4,71.6,23.6,171.6,28.2" transform="translate(169 5410.423)" fill="none" stroke="#5ab0e1" stroke-miterlimit="10" stroke-width="0.858"/>
    <circle id="楕円形_439" data-name="楕円形 439" cx="4.9" cy="4.9" r="4.9" transform="translate(652.2 8372.523)" fill="#fff"/>
    <circle id="楕円形_440" data-name="楕円形 440" cx="4.9" cy="4.9" r="4.9" transform="translate(712.6 8327.623)" fill="#fff"/>
    <circle id="楕円形_441" data-name="楕円形 441" cx="9.3" cy="9.3" r="9.3" transform="translate(732.9 8361.322)" fill="#fff"/>
    <circle id="楕円形_442" data-name="楕円形 442" cx="9.2" cy="9.2" r="9.2" transform="translate(744.6 8383.322)" fill="#fff"/>
    <path id="パス_18490" data-name="パス 18490" d="M595.7,3025.9a8.2,8.2,0,1,1-8.2-8.2A8.237,8.237,0,0,1,595.7,3025.9Z" transform="translate(169 5410.423)" fill="#fff"/>
    <text id="_6" data-name="6" transform="translate(652.94 8377.314)" fill="#040000" font-size="14" font-family="SegoeUI, Segoe UI" letter-spacing="0.1em"><tspan x="0" y="0">6</tspan></text>
    <text id="_12" data-name="12" transform="translate(714.607 8332.49)" fill="#040000" font-size="14" font-family="SegoeUI, Segoe UI" letter-spacing="0.1em"><tspan x="0" y="0">12</tspan></text>
    <circle id="楕円形_443" data-name="楕円形 443" cx="6.9" cy="6.9" r="6.9" transform="translate(725 8353.423)" fill="#fff"/>
    <text id="_10" data-name="10" transform="translate(726.588 8363.289)" fill="#040000" font-size="14" font-family="SegoeUI, Segoe UI" letter-spacing="0.1em"><tspan x="0" y="0">10</tspan></text>
    <text id="_18" data-name="18" transform="translate(799.972 8222.417)" fill="#040000" font-size="14" font-family="SegoeUI, Segoe UI" letter-spacing="0.1em"><tspan x="0" y="0">18</tspan></text>
    <text id="_23" data-name="23" transform="translate(750.18 8442.102)" fill="#040000" font-size="14" font-family="SegoeUI, Segoe UI" letter-spacing="0.1em"><tspan x="0" y="0">23</tspan></text>
    <path id="パス_18491" data-name="パス 18491" d="M515.8,3036.3v-61.7h-3.4v61.8l.8.6.5-.7h1.1l.6.6Z" transform="translate(169 5410.423)" fill="#cc9d3e"/>
    <g id="グループ_2435" data-name="グループ 2435" transform="translate(169 5410.423)">
      <g id="グループ_2427" data-name="グループ 2427" clip-path="url(#clip-path)">
        <path id="パス_18492" data-name="パス 18492" d="M522.8,3005.3l-16.4,6.8-.5-.9,16.4-6.9Z" fill="#040000"/>
      </g>
      <g id="グループ_2428" data-name="グループ 2428" clip-path="url(#clip-path)">
        <path id="パス_18494" data-name="パス 18494" d="M522.8,3008l-16.4,6.9-.5-1,16.4-6.9Z" fill="#040000"/>
      </g>
      <g id="グループ_2429" data-name="グループ 2429" clip-path="url(#clip-path)">
        <path id="パス_18496" data-name="パス 18496" d="M522.8,3010.7l-16.4,6.9-.5-1,16.4-6.8Z" fill="#040000"/>
      </g>
      <g id="グループ_2430" data-name="グループ 2430" clip-path="url(#clip-path)">
        <path id="パス_18498" data-name="パス 18498" d="M522.8,3013.5l-16.4,6.8-.5-1,16.4-6.8Z" fill="#040000"/>
      </g>
      <g id="グループ_2431" data-name="グループ 2431" clip-path="url(#clip-path)">
        <path id="パス_18500" data-name="パス 18500" d="M522.8,3016.2l-16.4,6.8-.5-1,16.4-6.8Z" fill="#040000"/>
      </g>
      <g id="グループ_2432" data-name="グループ 2432" clip-path="url(#clip-path)">
        <path id="パス_18502" data-name="パス 18502" d="M522.8,3018.9l-16.4,6.8-.5-1,16.4-6.8Z" fill="#040000"/>
      </g>
      <g id="グループ_2433" data-name="グループ 2433" clip-path="url(#clip-path)">
        <path id="パス_18504" data-name="パス 18504" d="M522.8,3021.6l-16.4,6.9-.5-1,16.4-6.9Z" fill="#040000"/>
      </g>
      <g id="グループ_2434" data-name="グループ 2434" clip-path="url(#clip-path)">
        <path id="パス_18506" data-name="パス 18506" d="M522.8,3024.3l-16.4,6.9-.5-1,16.4-6.9Z" fill="#040000"/>
      </g>
    </g>
    <text id="_15" data-name="15" transform="translate(734.879 8375.742)" fill="#040000" font-size="14" font-family="SegoeUI, Segoe UI" letter-spacing="0.1em"><tspan x="0" y="0">15</tspan></text>
    <text id="_20" data-name="20" transform="translate(747.031 8398.314)" fill="#040000" font-size="14" font-family="SegoeUI, Segoe UI" letter-spacing="0.1em"><tspan x="0" y="0">20</tspan></text>
    <circle id="楕円形_461" data-name="楕円形 461" cx="4.8" cy="4.8" r="4.8" transform="translate(776.4 8545.322)" fill="#5ab0e1"/>
    <circle id="楕円形_462" data-name="楕円形 462" cx="4.8" cy="4.8" r="4.8" transform="translate(776.4 8512.322)" fill="#e63828"/>
    <text id="隔音分貝降低值" transform="translate(799.958 8555.042)" fill="#707070" font-size="14" font-family="YuGothicUI-Regular, Yu Gothic UI" letter-spacing="0.1em"><tspan x="0" y="0">隔音分貝降低</tspan><tspan y="0" font-family="MicrosoftJhengHeiUIRegular, Microsoft JhengHei UI">值</tspan></text>
    <text id="聲音自然衰弱分貝降低值" transform="translate(799.958 8521.865)" fill="#707070" font-size="14" font-family="YuGothicUI-Regular, Yu Gothic UI" letter-spacing="0.1em"><tspan x="0" y="0">聲音自然衰弱分貝降低</tspan><tspan y="0" font-family="MicrosoftJhengHeiUIRegular, Microsoft JhengHei UI">值</tspan></text>
    <g id="グループ_2541" data-name="グループ 2541" transform="translate(169 5410.423)">
      <g id="グループ_2540" data-name="グループ 2540">
        <path id="パス_18607" data-name="パス 18607" d="M658.6,2840c.1.1.3.2.4.3" fill="none" stroke="#e63828" stroke-miterlimit="10" stroke-width="0.25"/>
        <path id="パス_18608" data-name="パス 18608" d="M662.7,2843.6a260.362,260.362,0,0,1,85.2,188.3" fill="none" stroke="#e63828" stroke-miterlimit="10" stroke-width="0.25" stroke-dasharray="0.996 4.978"/>
        <path id="パス_18609" data-name="パス 18609" d="M747.9,3034.5v.5" fill="none" stroke="#e63828" stroke-miterlimit="10" stroke-width="0.25"/>
      </g>
    </g>
  </g>
</svg>
