<svg xmlns="http://www.w3.org/2000/svg" width="639.768" height="100.134" viewBox="0 0 639.768 100.134">
  <g id="d_wall7" transform="translate(-3.914 1.088)">
    <path id="パス_20651" data-name="パス 20651" d="M3.914-27.056H14.592v5.092H10.64V1.824h3.952V6.916H3.914ZM633,6.916V1.824h3.952V-21.964H633v-5.092h10.678V6.916Z" transform="translate(0 36.645)" fill="#ffdb4f"/>
    <text id="_" data-name="＞" transform="translate(386.343 27.963)" fill="#929293" font-size="19.57" font-family="MicrosoftJhengHeiUIRegular, Microsoft JhengHei UI"><tspan x="0" y="0">＞</tspan></text>
    <text id="_2" data-name="＞" transform="translate(233.028 27.963)" fill="#929293" font-size="19.57" font-family="MicrosoftJhengHeiUIRegular, Microsoft JhengHei UI"><tspan x="0" y="0">＞</tspan></text>
    <text id="聲音和視覺" transform="translate(271.442 50.644)" fill="#717071" font-size="17" font-family="YuGothicUI-Regular, Yu Gothic UI" letter-spacing="0.1em"><tspan x="0" y="0">聲音和視覺</tspan></text>
    <text id="溝通" transform="translate(157.299 16.912)" fill="#717071" font-size="17" font-family="YuGothicUI-Regular, Yu Gothic UI" letter-spacing="0.1em"><tspan x="0" y="0">溝通</tspan></text>
    <text id="方便性" transform="translate(144.512 49.273)" fill="#717071" font-size="17" font-family="YuGothicUI-Regular, Yu Gothic UI" letter-spacing="0.1em"><tspan x="0" y="0">方便性</tspan></text>
    <text id="危險" transform="translate(299 22.121)" fill="#717071" font-size="17" font-family="YuGothicUI-Regular, Yu Gothic UI" letter-spacing="0.1em"><tspan x="0" y="0">危險</tspan></text>
    <text id="耳朵_傷害" data-name="耳朵
傷害" transform="translate(431.297 16.912)" fill="#717071" font-size="17" font-family="YuGothicUI-Regular, Yu Gothic UI" letter-spacing="0.1em"><tspan x="0" y="0">耳朵</tspan><tspan y="0" font-family="SegoeUI, Segoe UI"></tspan><tspan x="0" y="30">傷害</tspan></text>
    <g id="グループ_2268" data-name="グループ 2268" transform="translate(3)">
      <text id="Concluded_by_about_21_workers_from_factory_construction." data-name="Concluded by about 21 workers from factory , construction." transform="translate(175.373 96.046)" fill="#7f7f7f" font-size="9.75" font-family="OpenSans-Light, Open Sans" font-weight="300"><tspan x="0" y="0">Concluded by about 21 workers from factory , construction.</tspan></text>
    </g>
  </g>
</svg>
