<svg xmlns="http://www.w3.org/2000/svg" width="927.4" height="249.7" viewBox="0 0 927.4 249.7">
  <g id="d_wall17" transform="translate(-368.3 -9074.523)">
    <text id="風景區_保護區" data-name="風景區、保護區" transform="translate(410.729 9206.437)" fill="#717071" font-size="14" font-family="YuGothicUI-Regular, Yu Gothic UI" letter-spacing="0.1em"><tspan x="0" y="0">風景區、保護區</tspan></text>
    <text id="日間_" data-name="日間 " transform="translate(388.029 9237.736)" fill="#717071" font-size="14" font-family="YuGothicUI-Regular, Yu Gothic UI" letter-spacing="0.1em"><tspan x="0" y="0">日間</tspan><tspan y="0" font-family="SegoeUI, Segoe UI"> </tspan></text>
    <text id="晚間_" data-name="晚間 " transform="translate(447.13 9237.736)" fill="#717071" font-size="14" font-family="YuGothicUI-Regular, Yu Gothic UI" letter-spacing="0.1em"><tspan x="0" y="0">晚間</tspan><tspan y="0" font-family="SegoeUI, Segoe UI"> </tspan></text>
    <text id="夜間" transform="translate(505.729 9237.736)" fill="#717071" font-size="14" font-family="YuGothicUI-Regular, Yu Gothic UI" letter-spacing="0.1em"><tspan x="0" y="0">夜間</tspan></text>
    <text id="_55_" data-name="55 " transform="translate(393.529 9265.037)" fill="#717071" font-size="14" font-family="SegoeUI, Segoe UI" letter-spacing="0.1em"><tspan x="0" y="0">55 </tspan></text>
    <text id="_50_" data-name="50 " transform="translate(452.63 9265.037)" fill="#717071" font-size="14" font-family="SegoeUI, Segoe UI" letter-spacing="0.1em"><tspan x="0" y="0">50 </tspan></text>
    <text id="_45" data-name="45" transform="translate(511.229 9265.037)" fill="#717071" font-size="14" font-family="SegoeUI, Segoe UI" letter-spacing="0.1em"><tspan x="0" y="0">45</tspan></text>
    <text id="文教區_行政區" data-name="文教區、行政區" transform="translate(663.059 9205.21)" fill="#717071" font-size="14" font-family="YuGothicUI-Regular, Yu Gothic UI" letter-spacing="0.1em"><tspan x="0" y="0">文教區、行政區</tspan></text>
    <text id="日間_2" data-name="日間 " transform="translate(637.359 9240.51)" fill="#717071" font-size="14" font-family="YuGothicUI-Regular, Yu Gothic UI" letter-spacing="0.1em"><tspan x="0" y="0">日間</tspan><tspan y="0" font-family="SegoeUI, Segoe UI"> </tspan></text>
    <text id="晚間_2" data-name="晚間 " transform="translate(696.459 9240.51)" fill="#717071" font-size="14" font-family="YuGothicUI-Regular, Yu Gothic UI" letter-spacing="0.1em"><tspan x="0" y="0">晚間</tspan><tspan y="0" font-family="SegoeUI, Segoe UI"> </tspan></text>
    <text id="夜間-2" data-name="夜間" transform="translate(755.059 9240.51)" fill="#717071" font-size="14" font-family="YuGothicUI-Regular, Yu Gothic UI" letter-spacing="0.1em"><tspan x="0" y="0">夜間</tspan></text>
    <text id="_60_" data-name="60 " transform="translate(642.859 9267.811)" fill="#717071" font-size="14" font-family="SegoeUI, Segoe UI" letter-spacing="0.1em"><tspan x="0" y="0">60 </tspan></text>
    <text id="_55_2" data-name="55 " transform="translate(701.959 9267.811)" fill="#717071" font-size="14" font-family="SegoeUI, Segoe UI" letter-spacing="0.1em"><tspan x="0" y="0">55 </tspan></text>
    <text id="_50" data-name="50" transform="translate(760.559 9267.811)" fill="#717071" font-size="14" font-family="SegoeUI, Segoe UI" letter-spacing="0.1em"><tspan x="0" y="0">50</tspan></text>
    <text id="商業區_漁業區" data-name="商業區、漁業區" transform="translate(905.595 9203.308)" fill="#717071" font-size="14" font-family="YuGothicUI-Regular, Yu Gothic UI" letter-spacing="0.1em"><tspan x="0" y="0">商業區、漁業區</tspan></text>
    <text id="日間_3" data-name="日間 " transform="translate(879.895 9235.607)" fill="#717071" font-size="14" font-family="YuGothicUI-Regular, Yu Gothic UI" letter-spacing="0.1em"><tspan x="0" y="0">日間</tspan><tspan y="0" font-family="SegoeUI, Segoe UI"> </tspan></text>
    <text id="晚間_3" data-name="晚間 " transform="translate(938.995 9235.607)" fill="#717071" font-size="14" font-family="YuGothicUI-Regular, Yu Gothic UI" letter-spacing="0.1em"><tspan x="0" y="0">晚間</tspan><tspan y="0" font-family="SegoeUI, Segoe UI"> </tspan></text>
    <text id="夜間-3" data-name="夜間" transform="translate(997.595 9235.607)" fill="#717071" font-size="14" font-family="YuGothicUI-Regular, Yu Gothic UI" letter-spacing="0.1em"><tspan x="0" y="0">夜間</tspan></text>
    <text id="_65_" data-name="65 " transform="translate(885.395 9262.908)" fill="#717071" font-size="14" font-family="SegoeUI, Segoe UI" letter-spacing="0.1em"><tspan x="0" y="0">65 </tspan></text>
    <text id="_60_2" data-name="60 " transform="translate(944.495 9262.908)" fill="#717071" font-size="14" font-family="SegoeUI, Segoe UI" letter-spacing="0.1em"><tspan x="0" y="0">60 </tspan></text>
    <text id="_55" data-name="55" transform="translate(1003.095 9262.908)" fill="#717071" font-size="14" font-family="SegoeUI, Segoe UI" letter-spacing="0.1em"><tspan x="0" y="0">55</tspan></text>
    <text id="工業區_倉庫區" data-name="工業區、倉庫區" transform="translate(1153.303 9203.308)" fill="#717071" font-size="14" font-family="YuGothicUI-Regular, Yu Gothic UI" letter-spacing="0.1em"><tspan x="0" y="0">工業區、倉庫區</tspan></text>
    <text id="日間_4" data-name="日間 " transform="translate(1127.603 9235.607)" fill="#717071" font-size="14" font-family="YuGothicUI-Regular, Yu Gothic UI" letter-spacing="0.1em"><tspan x="0" y="0">日間</tspan><tspan y="0" font-family="SegoeUI, Segoe UI"> </tspan></text>
    <text id="晚間_4" data-name="晚間 " transform="translate(1186.703 9235.607)" fill="#717071" font-size="14" font-family="YuGothicUI-Regular, Yu Gothic UI" letter-spacing="0.1em"><tspan x="0" y="0">晚間</tspan><tspan y="0" font-family="SegoeUI, Segoe UI"> </tspan></text>
    <text id="夜間-4" data-name="夜間" transform="translate(1245.303 9235.607)" fill="#717071" font-size="14" font-family="YuGothicUI-Regular, Yu Gothic UI" letter-spacing="0.1em"><tspan x="0" y="0">夜間</tspan></text>
    <text id="_75_" data-name="75 " transform="translate(1133.103 9262.908)" fill="#717071" font-size="14" font-family="SegoeUI, Segoe UI" letter-spacing="0.1em"><tspan x="0" y="0">75 </tspan></text>
    <text id="_70_" data-name="70 " transform="translate(1192.203 9262.908)" fill="#717071" font-size="14" font-family="SegoeUI, Segoe UI" letter-spacing="0.1em"><tspan x="0" y="0">70 </tspan></text>
    <text id="_65" data-name="65" transform="translate(1250.803 9262.908)" fill="#717071" font-size="14" font-family="SegoeUI, Segoe UI" letter-spacing="0.1em"><tspan x="0" y="0">65</tspan></text>
    <g id="グループ_2453" data-name="グループ 2453" transform="translate(343 4787.923)">
      <g id="グループ_2441" data-name="グループ 2441">
        <g id="グループ_2440" data-name="グループ 2440">
          <path id="パス_18508" data-name="パス 18508" d="M606.9,4374.9l14.1-14.1,18.2-18.2V4318H648v-5.6h-9.4v-17.3h-3.4v-3.6H623.8v3.6h-4.6v18.1l-13.6,13.6h-4.5v-10.1H597v-4.1h-7.3v4.1h-2.3v15.2h-7.5v-34.2a52.253,52.253,0,0,0-5.6,0v39.8h-3.9v-25.3h-2.8v-4.3H553.1v4.5h-2.8v11.8l6.8,50.7h49.8Z" fill="#a1cdc8"/>
          <path id="パス_18509" data-name="パス 18509" d="M570.5,4374.9v-27.6h-6.7v-19h-4.1v-4.5H542.8v5.1h-5.5v-14.4h-9.6v27.9h-9.1v32.5Z" fill="#7bb0ac"/>
          <path id="パス_18510" data-name="パス 18510" d="M700.6,4374.9v-39.6c0,.9-27.6,0-27.6,0v-19H662.9v-23.8H648.8v25.2H637.5v29.7c0-.9-.9,18.4-1.3,27.6h64.4Z" fill="#7bb0ac"/>
          <path id="パス_18511" data-name="パス 18511" d="M666.6,4374.9v-32.7H627.4v-31.7l-9.8-9.7-12.3,12.3v20.7h-7.5v9.7h-8.7v31.4Z" fill="#699892"/>
        </g>
        <rect id="長方形_1017" data-name="長方形 1017" width="3.7" height="6.8" transform="translate(520.3 4345.2)" fill="#fbefdb"/>
        <rect id="長方形_1018" data-name="長方形 1018" width="3.7" height="6.8" transform="translate(530.5 4315.6)" fill="#fbefdb"/>
        <rect id="長方形_1019" data-name="長方形 1019" width="3.7" height="6.8" transform="translate(530.3 4323.9)" fill="#fbefdb"/>
        <rect id="長方形_1020" data-name="長方形 1020" width="3.7" height="6.8" transform="translate(530.5 4332.5)" fill="#fbefdb"/>
        <rect id="長方形_1021" data-name="長方形 1021" width="3.7" height="6.8" transform="translate(575.4 4299.2)" fill="#fbefdb"/>
        <rect id="長方形_1022" data-name="長方形 1022" width="3.7" height="6.8" transform="translate(575.2 4307.5)" fill="#fbefdb"/>
        <rect id="長方形_1023" data-name="長方形 1023" width="3.7" height="6.8" transform="translate(575.4 4316)" fill="#fbefdb"/>
        <rect id="長方形_1024" data-name="長方形 1024" width="3.7" height="6.8" transform="translate(575.4 4324.8)" fill="#fbefdb"/>
        <rect id="長方形_1025" data-name="長方形 1025" width="3.7" height="6.8" transform="translate(575.2 4333.1)" fill="#fbefdb"/>
        <rect id="長方形_1026" data-name="長方形 1026" width="3.7" height="6.8" transform="translate(575.4 4341.7)" fill="#fbefdb"/>
        <rect id="長方形_1027" data-name="長方形 1027" width="3.7" height="6.8" transform="translate(527 4345)" fill="#fbefdb"/>
        <rect id="長方形_1028" data-name="長方形 1028" width="3.7" height="6.8" transform="translate(607 4313.4)" fill="#fbefdb"/>
        <rect id="長方形_1029" data-name="長方形 1029" width="3.7" height="6.8" transform="translate(613.7 4313.2)" fill="#fbefdb"/>
        <rect id="長方形_1030" data-name="長方形 1030" width="3.7" height="6.8" transform="translate(650.5 4296.1)" fill="#fbefdb"/>
        <rect id="長方形_1031" data-name="長方形 1031" width="3.7" height="6.8" transform="translate(657.2 4295.9)" fill="#fbefdb"/>
        <rect id="長方形_1032" data-name="長方形 1032" width="3.7" height="6.8" transform="translate(650.7 4306.8)" fill="#fbefdb"/>
        <rect id="長方形_1033" data-name="長方形 1033" width="3.7" height="6.8" transform="translate(657.3 4306.6)" fill="#fbefdb"/>
        <rect id="長方形_1034" data-name="長方形 1034" width="3.7" height="6.8" transform="translate(639.6 4322.5)" fill="#fbefdb"/>
        <rect id="長方形_1035" data-name="長方形 1035" width="3.7" height="6.8" transform="translate(646.2 4322.4)" fill="#fbefdb"/>
        <rect id="長方形_1036" data-name="長方形 1036" width="3.7" height="6.8" transform="translate(660.3 4322.5)" fill="#fbefdb"/>
        <rect id="長方形_1037" data-name="長方形 1037" width="3.7" height="6.8" transform="translate(666.9 4322.4)" fill="#fbefdb"/>
        <rect id="長方形_1038" data-name="長方形 1038" width="3.7" height="6.8" transform="translate(639.6 4332.9)" fill="#fbefdb"/>
        <rect id="長方形_1039" data-name="長方形 1039" width="3.7" height="6.8" transform="translate(646.2 4332.8)" fill="#fbefdb"/>
        <rect id="長方形_1040" data-name="長方形 1040" width="3.7" height="6.8" transform="translate(660.3 4332.9)" fill="#fbefdb"/>
        <rect id="長方形_1041" data-name="長方形 1041" width="3.7" height="6.8" transform="translate(666.9 4332.8)" fill="#fbefdb"/>
        <rect id="長方形_1042" data-name="長方形 1042" width="3.7" height="6.8" transform="translate(672.6 4360.7)" fill="#fbefdb"/>
        <rect id="長方形_1043" data-name="長方形 1043" width="3.7" height="6.8" transform="translate(679.3 4360.5)" fill="#fbefdb"/>
        <rect id="長方形_1044" data-name="長方形 1044" width="3.7" height="6.8" transform="translate(687.1 4360.7)" fill="#fbefdb"/>
        <rect id="長方形_1045" data-name="長方形 1045" width="3.7" height="6.8" transform="translate(693.8 4360.5)" fill="#fbefdb"/>
        <rect id="長方形_1046" data-name="長方形 1046" width="3.7" height="6.8" transform="translate(620.4 4313.2)" fill="#fbefdb"/>
        <rect id="長方形_1047" data-name="長方形 1047" width="3.7" height="6.8" transform="translate(592.1 4348)" fill="#fbefdb"/>
        <rect id="長方形_1048" data-name="長方形 1048" width="3.7" height="6.8" transform="translate(598.7 4347.9)" fill="#fbefdb"/>
        <rect id="長方形_1049" data-name="長方形 1049" width="3.7" height="6.8" transform="translate(605.5 4347.9)" fill="#fbefdb"/>
        <rect id="長方形_1050" data-name="長方形 1050" width="3.7" height="6.8" transform="translate(613.2 4348)" fill="#fbefdb"/>
        <rect id="長方形_1051" data-name="長方形 1051" width="3.7" height="6.8" transform="translate(619.9 4347.9)" fill="#fbefdb"/>
        <rect id="長方形_1052" data-name="長方形 1052" width="3.7" height="6.8" transform="translate(626.6 4347.9)" fill="#fbefdb"/>
        <rect id="長方形_1053" data-name="長方形 1053" width="3.7" height="6.8" transform="translate(634.4 4348)" fill="#fbefdb"/>
        <rect id="長方形_1054" data-name="長方形 1054" width="3.7" height="6.8" transform="translate(641 4347.9)" fill="#fbefdb"/>
        <rect id="長方形_1055" data-name="長方形 1055" width="3.7" height="6.8" transform="translate(647.7 4347.9)" fill="#fbefdb"/>
        <rect id="長方形_1056" data-name="長方形 1056" width="10.4" height="6.8" transform="translate(653.9 4347.9)" fill="#fbefdb"/>
        <rect id="長方形_1057" data-name="長方形 1057" width="25.8" height="6.8" transform="translate(672.4 4341.4)" fill="#fbefdb"/>
        <rect id="長方形_1058" data-name="長方形 1058" width="25.8" height="6.8" transform="translate(672.4 4351)" fill="#fbefdb"/>
        <rect id="長方形_1059" data-name="長方形 1059" width="10.4" height="6.8" transform="translate(653.9 4357.9)" fill="#fbefdb"/>
        <rect id="長方形_1060" data-name="長方形 1060" width="3.7" height="6.8" transform="translate(592.1 4358)" fill="#fbefdb"/>
        <rect id="長方形_1061" data-name="長方形 1061" width="3.7" height="6.8" transform="translate(598.7 4357.9)" fill="#fbefdb"/>
        <rect id="長方形_1062" data-name="長方形 1062" width="3.7" height="6.8" transform="translate(605.5 4357.9)" fill="#fbefdb"/>
        <rect id="長方形_1063" data-name="長方形 1063" width="3.7" height="6.8" transform="translate(613.2 4358)" fill="#fbefdb"/>
        <rect id="長方形_1064" data-name="長方形 1064" width="3.7" height="6.8" transform="translate(619.9 4357.9)" fill="#fbefdb"/>
        <rect id="長方形_1065" data-name="長方形 1065" width="3.7" height="6.8" transform="translate(626.6 4357.9)" fill="#fbefdb"/>
        <rect id="長方形_1066" data-name="長方形 1066" width="3.7" height="6.8" transform="translate(634.4 4358)" fill="#fbefdb"/>
        <rect id="長方形_1067" data-name="長方形 1067" width="3.7" height="6.8" transform="translate(641 4357.9)" fill="#fbefdb"/>
        <rect id="長方形_1068" data-name="長方形 1068" width="3.7" height="6.8" transform="translate(647.7 4357.9)" fill="#fbefdb"/>
        <rect id="長方形_1069" data-name="長方形 1069" width="3.7" height="6.8" transform="translate(607 4326)" fill="#fbefdb"/>
        <rect id="長方形_1070" data-name="長方形 1070" width="3.7" height="6.8" transform="translate(613.7 4325.9)" fill="#fbefdb"/>
        <rect id="長方形_1071" data-name="長方形 1071" width="3.7" height="6.8" transform="translate(620.4 4325.9)" fill="#fbefdb"/>
        <rect id="長方形_1072" data-name="長方形 1072" width="3.7" height="6.8" transform="translate(533 4345.2)" fill="#fbefdb"/>
        <rect id="長方形_1073" data-name="長方形 1073" width="3.7" height="6.8" transform="translate(539.6 4345)" fill="#fbefdb"/>
        <rect id="長方形_1074" data-name="長方形 1074" width="3.7" height="6.8" transform="translate(545.4 4345.2)" fill="#fbefdb"/>
        <rect id="長方形_1075" data-name="長方形 1075" width="3.7" height="6.8" transform="translate(552 4345)" fill="#fbefdb"/>
        <rect id="長方形_1076" data-name="長方形 1076" width="3.7" height="6.8" transform="translate(557.9 4345)" fill="#fbefdb"/>
        <rect id="長方形_1077" data-name="長方形 1077" width="15.9" height="6.8" transform="translate(542.7 4332)" fill="#fbefdb"/>
        <rect id="長方形_1078" data-name="長方形 1078" width="17.6" height="6.8" transform="translate(606.9 4335.6)" fill="#fbefdb"/>
        <rect id="長方形_1079" data-name="長方形 1079" width="3.7" height="6.8" transform="translate(520.3 4356.6)" fill="#fbefdb"/>
        <rect id="長方形_1080" data-name="長方形 1080" width="3.7" height="6.8" transform="translate(527 4356.4)" fill="#fbefdb"/>
        <rect id="長方形_1081" data-name="長方形 1081" width="3.7" height="6.8" transform="translate(533 4356.6)" fill="#fbefdb"/>
        <rect id="長方形_1082" data-name="長方形 1082" width="3.7" height="6.8" transform="translate(539.6 4356.4)" fill="#fbefdb"/>
        <rect id="長方形_1083" data-name="長方形 1083" width="3.7" height="6.8" transform="translate(545.4 4356.6)" fill="#fbefdb"/>
        <rect id="長方形_1084" data-name="長方形 1084" width="3.7" height="6.8" transform="translate(552 4356.4)" fill="#fbefdb"/>
        <rect id="長方形_1085" data-name="長方形 1085" width="3.7" height="6.8" transform="translate(557.9 4356.4)" fill="#fbefdb"/>
      </g>
      <g id="グループ_2446" data-name="グループ 2446">
        <rect id="長方形_1086" data-name="長方形 1086" width="1.2" height="12.7" transform="translate(565.7 4362.2)" fill="#5d421e"/>
        <circle id="楕円形_444" data-name="楕円形 444" cx="6.6" cy="6.6" r="6.6" transform="translate(559.6 4350.4)" fill="#5b7547"/>
        <circle id="楕円形_445" data-name="楕円形 445" cx="6.6" cy="6.6" r="6.6" transform="translate(593.6 4350.4)" fill="#85a46e"/>
        <g id="グループ_2442" data-name="グループ 2442">
          <rect id="長方形_1087" data-name="長方形 1087" width="1.2" height="12.7" transform="translate(599.8 4362.2)" fill="#5d421e"/>
          <circle id="楕円形_446" data-name="楕円形 446" cx="6.6" cy="6.6" r="6.6" transform="translate(593.6 4350.4)" fill="#85a46e"/>
          <path id="パス_18512" data-name="パス 18512" d="M600.3,4350.4h-.1a6.6,6.6,0,0,0,0,13.2h.1Z" fill="#5b7547"/>
        </g>
        <g id="グループ_2445" data-name="グループ 2445">
          <g id="グループ_2443" data-name="グループ 2443">
            <rect id="長方形_1088" data-name="長方形 1088" width="1.2" height="12.7" transform="translate(581.5 4362.2)" fill="#5d421e"/>
          </g>
          <g id="グループ_2444" data-name="グループ 2444">
            <circle id="楕円形_447" data-name="楕円形 447" cx="6.6" cy="6.6" r="6.6" transform="translate(575.3 4350.4)" fill="#85a46e"/>
            <path id="パス_18513" data-name="パス 18513" d="M582.2,4350.5h-.3a6.6,6.6,0,0,0,0,13.2h.3Z" fill="#5b7547"/>
          </g>
        </g>
      </g>
      <g id="グループ_2447" data-name="グループ 2447">
        <path id="パス_18514" data-name="パス 18514" d="M656.6,4369.6a2.9,2.9,0,0,1-2.9,2.9h-26c-1.6,0-2.1-1.7-1.2-2.9h0c1.4-1.6,5.5-2.9,7.1-2.9h20.1a2.968,2.968,0,0,1,2.9,2.9Z" fill="#cc283e"/>
        <path id="パス_18515" data-name="パス 18515" d="M654.3,4366.9c-.1-2.8-4.8-5.3-10.6-5.1-3.9.2-9.2,2.5-10.6,5.1Z" fill="#cc283e"/>
        <circle id="楕円形_448" data-name="楕円形 448" cx="2.5" cy="2.5" r="2.5" transform="translate(630.9 4369.7)" fill="#e7e1b9"/>
        <path id="パス_18516" data-name="パス 18516" d="M653.6,4366.7c-.1-2.2-4.2-4.4-9.3-4.3-4.5.1-9.2,2.1-9.3,4.3Z" fill="#e7e1b9"/>
        <rect id="長方形_1089" data-name="長方形 1089" width="0.5" height="4.4" transform="translate(641.1 4362.4)" fill="#cc283e"/>
        <rect id="長方形_1090" data-name="長方形 1090" width="0.5" height="4.4" transform="translate(649.8 4362.9)" fill="#cc283e"/>
        <circle id="楕円形_449" data-name="楕円形 449" cx="2" cy="2" r="2" transform="translate(631.4 4370.2)" fill="#412a11"/>
        <circle id="楕円形_450" data-name="楕円形 450" cx="2.5" cy="2.5" r="2.5" transform="translate(648.8 4369.7)" fill="#e7e1b9"/>
        <circle id="楕円形_451" data-name="楕円形 451" cx="2" cy="2" r="2" transform="translate(649.3 4370.2)" fill="#412a11"/>
      </g>
      <g id="グループ_2452" data-name="グループ 2452">
        <g id="グループ_2448" data-name="グループ 2448">
          <path id="パス_18517" data-name="パス 18517" d="M556.6,4369.6a2.9,2.9,0,0,1-2.9,2.9h-26c-1.6,0-2.1-1.7-1.2-2.9h0c1.4-1.6,5.5-2.9,7.1-2.9h20.1a2.968,2.968,0,0,1,2.9,2.9Z" fill="#e49f24"/>
        </g>
        <g id="グループ_2449" data-name="グループ 2449">
          <path id="パス_18518" data-name="パス 18518" d="M554.3,4366.9c-.1-2.8-4.8-5.3-10.6-5.1-3.9.2-9.2,2.5-10.6,5.1Z" fill="#e49f24"/>
        </g>
        <circle id="楕円形_452" data-name="楕円形 452" cx="2.5" cy="2.5" r="2.5" transform="translate(530.9 4369.7)" fill="#e7e1b9"/>
        <path id="パス_18519" data-name="パス 18519" d="M553.6,4366.7c-.1-2.2-4.2-4.4-9.3-4.3-4.5.1-9.2,2.1-9.3,4.3Z" fill="#e7e1b9"/>
        <g id="グループ_2450" data-name="グループ 2450">
          <rect id="長方形_1091" data-name="長方形 1091" width="0.5" height="4.4" transform="translate(541.1 4362.4)" fill="#e49f24"/>
        </g>
        <g id="グループ_2451" data-name="グループ 2451">
          <rect id="長方形_1092" data-name="長方形 1092" width="0.5" height="4.4" transform="translate(549.8 4362.9)" fill="#e49f24"/>
        </g>
        <circle id="楕円形_453" data-name="楕円形 453" cx="2" cy="2" r="2" transform="translate(531.4 4370.2)" fill="#412a11"/>
        <circle id="楕円形_454" data-name="楕円形 454" cx="2.5" cy="2.5" r="2.5" transform="translate(548.8 4369.7)" fill="#e7e1b9"/>
        <circle id="楕円形_455" data-name="楕円形 455" cx="2" cy="2" r="2" transform="translate(549.3 4370.2)" fill="#412a11"/>
      </g>
    </g>
    <g id="グループ_2454" data-name="グループ 2454" transform="translate(313 4791.423)">
      <path id="パス_18520" data-name="パス 18520" d="M443.9,4309.1v-12.9H387.3v32c0-1.6-1.9,41.7-2.3,50.3H487.9v-69.4C487.9,4310.5,443.9,4309.1,443.9,4309.1Z" fill="#7bb0ac"/>
      <path id="パス_18521" data-name="パス 18521" d="M371.1,4294.4H335.8v12.3h-12v15.5H310.1v55.1l98.7,1.2h24.9v-58.4H371.1Z" fill="#699892"/>
      <rect id="長方形_1093" data-name="長方形 1093" width="5.8" height="10.8" transform="translate(390.5 4305.3)" fill="#fbefdb"/>
      <rect id="長方形_1094" data-name="長方形 1094" width="5.8" height="10.8" transform="translate(401.1 4305.1)" fill="#fbefdb"/>
      <rect id="長方形_1095" data-name="長方形 1095" width="5.8" height="10.8" transform="translate(423.5 4305.3)" fill="#fbefdb"/>
      <rect id="長方形_1096" data-name="長方形 1096" width="5.8" height="10.8" transform="translate(434 4305.1)" fill="#fbefdb"/>
      <rect id="長方形_1097" data-name="長方形 1097" width="5.8" height="10.8" transform="translate(443.3 4349.5)" fill="#fbefdb"/>
      <rect id="長方形_1098" data-name="長方形 1098" width="5.8" height="10.8" transform="translate(453.8 4349.3)" fill="#fbefdb"/>
      <rect id="長方形_1099" data-name="長方形 1099" width="5.8" height="10.8" transform="translate(466.4 4349.5)" fill="#fbefdb"/>
      <rect id="長方形_1100" data-name="長方形 1100" width="5.8" height="10.8" transform="translate(476.9 4349.3)" fill="#fbefdb"/>
      <rect id="長方形_1101" data-name="長方形 1101" width="5.8" height="10.8" transform="translate(314.9 4329.3)" fill="#fbefdb"/>
      <rect id="長方形_1102" data-name="長方形 1102" width="5.8" height="10.8" transform="translate(325.4 4329.1)" fill="#fbefdb"/>
      <rect id="長方形_1103" data-name="長方形 1103" width="5.8" height="10.8" transform="translate(336.2 4329.1)" fill="#fbefdb"/>
      <rect id="長方形_1104" data-name="長方形 1104" width="5.8" height="10.8" transform="translate(348.5 4329.3)" fill="#fbefdb"/>
      <rect id="長方形_1105" data-name="長方形 1105" width="5.8" height="10.8" transform="translate(359.1 4329.1)" fill="#fbefdb"/>
      <rect id="長方形_1106" data-name="長方形 1106" width="5.8" height="10.8" transform="translate(369.8 4329.1)" fill="#fbefdb"/>
      <rect id="長方形_1107" data-name="長方形 1107" width="5.8" height="10.8" transform="translate(382.2 4329.3)" fill="#fbefdb"/>
      <rect id="長方形_1108" data-name="長方形 1108" width="5.8" height="10.8" transform="translate(392.7 4329.1)" fill="#fbefdb"/>
      <rect id="長方形_1109" data-name="長方形 1109" width="5.8" height="10.8" transform="translate(403.5 4329.1)" fill="#fbefdb"/>
      <rect id="長方形_1110" data-name="長方形 1110" width="16.6" height="10.8" transform="translate(413.4 4329.1)" fill="#fbefdb"/>
      <rect id="長方形_1111" data-name="長方形 1111" width="41.1" height="10.8" transform="translate(442.8 4318.8)" fill="#fbefdb"/>
      <rect id="長方形_1112" data-name="長方形 1112" width="41.1" height="10.8" transform="translate(442.8 4334)" fill="#fbefdb"/>
      <rect id="長方形_1113" data-name="長方形 1113" width="16.6" height="10.8" transform="translate(413.4 4345)" fill="#fbefdb"/>
      <rect id="長方形_1114" data-name="長方形 1114" width="5.8" height="10.8" transform="translate(314.9 4345.3)" fill="#fbefdb"/>
      <rect id="長方形_1115" data-name="長方形 1115" width="5.8" height="10.8" transform="translate(325.4 4345)" fill="#fbefdb"/>
      <rect id="長方形_1116" data-name="長方形 1116" width="5.8" height="10.8" transform="translate(336.2 4345)" fill="#fbefdb"/>
      <rect id="長方形_1117" data-name="長方形 1117" width="5.8" height="10.8" transform="translate(348.5 4345.3)" fill="#fbefdb"/>
      <rect id="長方形_1118" data-name="長方形 1118" width="5.8" height="10.8" transform="translate(359.1 4345)" fill="#fbefdb"/>
      <rect id="長方形_1119" data-name="長方形 1119" width="5.8" height="10.8" transform="translate(369.8 4345)" fill="#fbefdb"/>
      <rect id="長方形_1120" data-name="長方形 1120" width="5.8" height="10.8" transform="translate(382.2 4345.3)" fill="#fbefdb"/>
      <rect id="長方形_1121" data-name="長方形 1121" width="5.8" height="10.8" transform="translate(392.7 4345)" fill="#fbefdb"/>
      <rect id="長方形_1122" data-name="長方形 1122" width="5.8" height="10.8" transform="translate(403.5 4345)" fill="#fbefdb"/>
      <rect id="長方形_1123" data-name="長方形 1123" width="28.1" height="10.8" transform="translate(338.4 4309.6)" fill="#fbefdb"/>
    </g>
    <g id="グループ_2461" data-name="グループ 2461" transform="translate(274 4791.423)">
      <path id="パス_18522" data-name="パス 18522" d="M265.1,4372c2.1-6.7,5.2-20.2-3-25.9-11-7.7-31.9-3.6-31.9-3.6-40.3-54.7-87.4-6.7-87.4-6.7-30.8,2.4-23.6,29.8-26.8,36.2Z" fill="#657639"/>
      <g id="グループ_2455" data-name="グループ 2455">
        <rect id="長方形_1124" data-name="長方形 1124" width="1.4" height="22.6" transform="translate(101.2 4349.5)" fill="#5d421e"/>
        <path id="パス_18523" data-name="パス 18523" d="M95.8,4351.5h13.9l-7.8-36.9Z" fill="#5b7547"/>
        <path id="パス_18524" data-name="パス 18524" d="M101.9,4314.6v36.9h7.8Z" fill="#85a46e"/>
      </g>
      <g id="グループ_2456" data-name="グループ 2456">
        <rect id="長方形_1125" data-name="長方形 1125" width="1.4" height="22.4" transform="translate(115.8 4349.7)" fill="#5d421e"/>
        <path id="パス_18525" data-name="パス 18525" d="M110.4,4351.7h13.8l-7.7-36.9Z" fill="#5b7547"/>
        <path id="パス_18526" data-name="パス 18526" d="M116.5,4314.8v36.9h7.7Z" fill="#85a46e"/>
      </g>
      <g id="グループ_2457" data-name="グループ 2457">
        <rect id="長方形_1126" data-name="長方形 1126" width="1.4" height="23.7" transform="translate(234.5 4318)" fill="#5d421e"/>
        <path id="パス_18527" data-name="パス 18527" d="M229.1,4320.1h13.8l-7.7-37Z" fill="#5b7547"/>
        <path id="パス_18528" data-name="パス 18528" d="M235.2,4283.1v37h7.7Z" fill="#85a46e"/>
      </g>
      <g id="グループ_2458" data-name="グループ 2458">
        <rect id="長方形_1127" data-name="長方形 1127" width="1.4" height="23.7" transform="translate(249.1 4318.2)" fill="#5d421e"/>
        <path id="パス_18529" data-name="パス 18529" d="M243.6,4320.3h13.9l-7.7-37Z" fill="#5b7547"/>
        <path id="パス_18530" data-name="パス 18530" d="M249.8,4283.3v37h7.7Z" fill="#85a46e"/>
      </g>
      <g id="グループ_2459" data-name="グループ 2459">
        <rect id="長方形_1128" data-name="長方形 1128" width="1.1" height="16.1" transform="translate(121.7 4325.8)" fill="#5d421e"/>
        <ellipse id="楕円形_456" data-name="楕円形 456" cx="6" cy="8" rx="6" ry="8" transform="translate(116.1 4311.5)" fill="#5b7547"/>
      </g>
      <g id="グループ_2460" data-name="グループ 2460">
        <rect id="長方形_1129" data-name="長方形 1129" width="1.1" height="16.1" transform="translate(135.8 4325.8)" fill="#5d421e"/>
        <ellipse id="楕円形_457" data-name="楕円形 457" cx="6" cy="8" rx="6" ry="8" transform="translate(130.2 4311.5)" fill="#5b7547"/>
      </g>
      <path id="パス_18531" data-name="パス 18531" d="M142.9,4335.8s21.3,6.2,26.6,27.5c0,0-8.9-22.6-32.3-26.8Z" fill="#4d5b2b"/>
      <path id="パス_18532" data-name="パス 18532" d="M142.9,4335.8s22.2,7.3,26.6,27.5c0,0,6.3-53.4,41.9-39.2C211.4,4324.1,181.1,4300.6,142.9,4335.8Z" fill="#85a46e"/>
      <path id="パス_18533" data-name="パス 18533" d="M245.1,4372c.7-5.3,3-26.3.1-30.6,0,0-11.8-.3-15,1.1-.2.1,13.4,18.9,14.6,29.5Z" fill="#4d5b2b"/>
    </g>
    <g id="グループ_2539" data-name="グループ 2539" transform="translate(399 4787.923)">
      <g id="グループ_2538" data-name="グループ 2538">
        <g id="グループ_2474" data-name="グループ 2474">
          <g id="グループ_2462" data-name="グループ 2462">
            <path id="パス_18534" data-name="パス 18534" d="M736.6,4312.2h-6.9l-2.2,22.2h11.8Z" fill="#985324"/>
          </g>
          <g id="グループ_2463" data-name="グループ 2463">
            <path id="パス_18535" data-name="パス 18535" d="M734.4,4300.8a3.007,3.007,0,0,0,1.5,2.4h-.2a2.2,2.2,0,1,0,2.2,2.2,2.43,2.43,0,0,0-.9-1.8h.5a2.946,2.946,0,0,0,3-3,3.372,3.372,0,0,0-.5-1.7,3.9,3.9,0,0,0,2.2-3.5,3.606,3.606,0,0,0-.6-2,3.436,3.436,0,0,0,2.9-3.4,3.4,3.4,0,0,0-6.8,0,2.6,2.6,0,0,0,.4,1.5,3.852,3.852,0,0,0-3.6,3.9v.3a2.66,2.66,0,0,0-2.2,2.5A2.6,2.6,0,0,0,734.4,4300.8Z" fill="#efd5bc"/>
          </g>
          <g id="グループ_2464" data-name="グループ 2464">
            <path id="パス_18536" data-name="パス 18536" d="M762.3,4322.1h-7l-2.1,22.2H765Z" fill="#985324"/>
          </g>
          <g id="グループ_2465" data-name="グループ 2465">
            <path id="パス_18537" data-name="パス 18537" d="M756.5,4313.1a3.007,3.007,0,0,0,1.5,2.4h-.2a2.2,2.2,0,1,0,2.2,2.2,2.43,2.43,0,0,0-.9-1.8h.5a2.946,2.946,0,0,0,3-3,3.372,3.372,0,0,0-.5-1.7,3.9,3.9,0,0,0,2.2-3.5,4.552,4.552,0,0,0-.5-2,3.53,3.53,0,0,0,2.9-3.4,3.4,3.4,0,0,0-6.8,0,2.6,2.6,0,0,0,.4,1.5,3.852,3.852,0,0,0-3.6,3.9v.3a2.66,2.66,0,0,0-2.2,2.5A2.59,2.59,0,0,0,756.5,4313.1Z" fill="#efd5bc"/>
          </g>
          <g id="グループ_2466" data-name="グループ 2466">
            <path id="パス_18538" data-name="パス 18538" d="M749.3,4364.2h2v-4.6h1.9v4.6h12.9v1.7H746.5v-1.7h.9v-18.6h-2.7v-33.5h-2.3v24.4H726.1v18.4h-7.7v-6.3H717v6.3h-1.7v18.4h53.3v-27.5H749.5v18.4Zm16.8,7.1H746.5v-1.7h19.6Zm0-2.8H746.5v-1.7h19.6Z" fill="#985324"/>
          </g>
          <g id="グループ_2467" data-name="グループ 2467">
            <path id="パス_18539" data-name="パス 18539" d="M796.9,4323h-7.3v-12l-18.4,15.2V4374h18.4v-36.7h7.3V4374h18.4v-57.1l-18.4-18.2Zm-18.5,46.9h-3.8v-7.1h3.8Zm0-9.8h-3.8V4353h3.8Zm0-9.2h-3.8v-7.1h3.8Zm0-10h-3.8v-7.1h3.8Zm0-9.3h-3.8v-7.1h3.8Zm6.6,38.3h-3.8v-7.1H785Zm0-9.8h-3.8V4353H785Zm0-9.2h-3.8v-7.1H785Zm0-10h-3.8v-7.1H785Zm0-9.3h-3.8v-7.1H785Zm8.1,2.6h-3v-9.5h3Zm3.6,0h-3v-9.5h3Zm11.7-19.4h3.8v7.1h-3.8Zm0,9.7h3.8v7.1h-3.8Zm0,9.3h3.8v7.1h-3.8Zm0,10h3.8v7.1h-3.8Zm0,9.2h3.8v7.1h-3.8Zm0,9.8h3.8v7.1h-3.8Zm-6.7-48h3.8v7.1h-3.8Zm0,9.7h3.8v7.1h-3.8Zm0,9.3h3.8v7.1h-3.8Zm0,10h3.8v7.1h-3.8Zm0,9.2h3.8v7.1h-3.8Zm0,9.8h3.8v7.1h-3.8Z" fill="#985324"/>
          </g>
          <g id="グループ_2468" data-name="グループ 2468">
            <rect id="長方形_1130" data-name="長方形 1130" width="5.5" height="56.5" transform="translate(819.2 4317)" fill="#985324"/>
          </g>
          <g id="グループ_2469" data-name="グループ 2469">
            <path id="パス_18540" data-name="パス 18540" d="M829.5,4347.7a3.222,3.222,0,0,0-3.2,3.2v22.2a1.269,1.269,0,0,0,.1.6h6.2c0-.2.1-.4.1-.6v-22.2A3.222,3.222,0,0,0,829.5,4347.7Z" fill="#985324"/>
          </g>
          <g id="グループ_2470" data-name="グループ 2470">
            <path id="パス_18541" data-name="パス 18541" d="M837.7,4352.7a3.222,3.222,0,0,0-3.2,3.2v17.8h6.3v-17.8A3.138,3.138,0,0,0,837.7,4352.7Z" fill="#985324"/>
          </g>
          <g id="グループ_2471" data-name="グループ 2471">
            <path id="パス_18542" data-name="パス 18542" d="M854.5,4358.2l-11.1-2.6v18.3H861v-22.2h-6.5Z" fill="#985324"/>
          </g>
          <g id="グループ_2472" data-name="グループ 2472">
            <path id="パス_18543" data-name="パス 18543" d="M862.5,4360.2v14.4h34.2v-14.4Zm5.6,11.5H864V4368h4.1Zm0-4.8H864v-3.7h4.1Zm5.4,4.8h-4.1V4368h4.1Zm0-4.8h-4.1v-3.7h4.1Zm5.5,4.8h-4V4368h4.1v3.7Zm0-4.8h-4v-3.7h4.1v3.7Zm5.5,4.8h-4.1V4368h4.1Zm0-4.8h-4.1v-3.7h4.1Zm5.4,4.8h-4.1V4368h4.1Zm0-4.8h-4.1v-3.7h4.1Zm5.4,4.8h-4.1V4368h4.1Zm0-4.8h-4.1v-3.7h4.1Z" fill="#985324"/>
          </g>
          <g id="グループ_2473" data-name="グループ 2473">
            <path id="パス_18544" data-name="パス 18544" d="M896.5,4355.6h-5.7v-3.3a1.473,1.473,0,0,0-1.5-1.5,1.538,1.538,0,0,0-1.5,1.5v3.3H862.6v2.9h34v-2.9Z" fill="#985324"/>
          </g>
        </g>
        <g id="グループ_2531" data-name="グループ 2531">
          <g id="グループ_2475" data-name="グループ 2475">
            <path id="パス_18545" data-name="パス 18545" d="M871.3,4311.4h3.6l-1.7-1.5Z" fill="#985324"/>
          </g>
          <g id="グループ_2476" data-name="グループ 2476">
            <path id="パス_18546" data-name="パス 18546" d="M865.1,4311.4h3.5l-1.6-1.5Z" fill="#985324"/>
          </g>
          <g id="グループ_2477" data-name="グループ 2477">
            <path id="パス_18547" data-name="パス 18547" d="M870.2,4307.2l-2.6,2.1,2.3,2.1h0l2.7-2.1-2.3-2.1Z" fill="#985324"/>
          </g>
          <g id="グループ_2478" data-name="グループ 2478">
            <path id="パス_18548" data-name="パス 18548" d="M860.8,4309.9v-1.2h0l1.8-1.5h-2l-1.9,2.3,1.9,2.2v-.3h1.8Z" fill="#985324"/>
          </g>
          <g id="グループ_2479" data-name="グループ 2479">
            <path id="パス_18549" data-name="パス 18549" d="M864,4307.2l-2.6,2.1,2.3,2.1,2.6-2.1Z" fill="#985324"/>
          </g>
          <g id="グループ_2480" data-name="グループ 2480">
            <path id="パス_18550" data-name="パス 18550" d="M875.1,4307.2h-3.5l1.7,1.5Z" fill="#985324"/>
          </g>
          <g id="グループ_2481" data-name="グループ 2481">
            <path id="パス_18551" data-name="パス 18551" d="M868.8,4307.2h-3.5l1.7,1.5Z" fill="#985324"/>
          </g>
          <g id="グループ_2482" data-name="グループ 2482">
            <path id="パス_18552" data-name="パス 18552" d="M855.4,4365.6Z" fill="#985324"/>
          </g>
          <g id="グループ_2483" data-name="グループ 2483">
            <path id="パス_18553" data-name="パス 18553" d="M860.6,4364.6v-4.5l-1.9,2.4Z" fill="#985324"/>
          </g>
          <g id="グループ_2484" data-name="グループ 2484">
            <path id="パス_18554" data-name="パス 18554" d="M858.7,4368.7h-1.3l-2-2.2v2.3h5.2v-2.5Z" fill="#985324"/>
          </g>
          <g id="グループ_2485" data-name="グループ 2485">
            <path id="パス_18555" data-name="パス 18555" d="M855.4,4348.1v4.8l2.1-2.6Z" fill="#985324"/>
          </g>
          <g id="グループ_2486" data-name="グループ 2486">
            <path id="パス_18556" data-name="パス 18556" d="M855.4,4360.2v4.8l2.1-2.5Z" fill="#985324"/>
          </g>
          <g id="グループ_2487" data-name="グループ 2487">
            <path id="パス_18557" data-name="パス 18557" d="M855.6,4347l1.9-2.2-2.1-2.3v4.7Z" fill="#985324"/>
          </g>
          <g id="グループ_2488" data-name="グループ 2488">
            <path id="パス_18558" data-name="パス 18558" d="M858.1,4310.2l-1.9,2.3,1.8,2.1,1.9-2.4Z" fill="#985324"/>
          </g>
          <g id="グループ_2489" data-name="グループ 2489">
            <path id="パス_18559" data-name="パス 18559" d="M855.4,4354v4.8l2.1-2.6Z" fill="#985324"/>
          </g>
          <g id="グループ_2490" data-name="グループ 2490">
            <path id="パス_18560" data-name="パス 18560" d="M857.4,4339.1l-2-2.2v4.8l2.1-2.6Z" fill="#985324"/>
          </g>
          <g id="グループ_2491" data-name="グループ 2491">
            <path id="パス_18561" data-name="パス 18561" d="M855.4,4359.3v0Z" fill="#985324"/>
          </g>
          <g id="グループ_2492" data-name="グループ 2492">
            <path id="パス_18562" data-name="パス 18562" d="M860.6,4317.4v-4.6l-1.9,2.4Z" fill="#985324"/>
          </g>
          <g id="グループ_2493" data-name="グループ 2493">
            <path id="パス_18563" data-name="パス 18563" d="M860.6,4328.8v-4.6l-1.9,2.5Z" fill="#985324"/>
          </g>
          <g id="グループ_2494" data-name="グループ 2494">
            <path id="パス_18564" data-name="パス 18564" d="M860.5,4318.5l-1.8,2.2,1.9,2.2v-4.5Z" fill="#985324"/>
          </g>
          <g id="グループ_2495" data-name="グループ 2495">
            <path id="パス_18565" data-name="パス 18565" d="M858,4332.3l2.2-2.7-2.1-2.3-2.2,2.7Z" fill="#985324"/>
          </g>
          <g id="グループ_2496" data-name="グループ 2496">
            <path id="パス_18566" data-name="パス 18566" d="M858,4368l2.2-2.6-2.1-2.2-2.2,2.6Z" fill="#985324"/>
          </g>
          <g id="グループ_2497" data-name="グループ 2497">
            <path id="パス_18567" data-name="パス 18567" d="M860.6,4346.9v-4.5l-1.9,2.4Z" fill="#985324"/>
          </g>
          <g id="グループ_2498" data-name="グループ 2498">
            <path id="パス_18568" data-name="パス 18568" d="M860.6,4335.1v-4.6l-1.9,2.4Z" fill="#985324"/>
          </g>
          <g id="グループ_2499" data-name="グループ 2499">
            <path id="パス_18569" data-name="パス 18569" d="M858,4326l2.1-2.4-2-2.2-2,2.5Z" fill="#985324"/>
          </g>
          <g id="グループ_2500" data-name="グループ 2500">
            <path id="パス_18570" data-name="パス 18570" d="M860.5,4348.1l-1.8,2.2,1.9,2.1V4348Z" fill="#985324"/>
          </g>
          <g id="グループ_2501" data-name="グループ 2501">
            <path id="パス_18571" data-name="パス 18571" d="M860.6,4341.2v-4.5l-1.9,2.4Z" fill="#985324"/>
          </g>
          <g id="グループ_2502" data-name="グループ 2502">
            <path id="パス_18572" data-name="パス 18572" d="M858,4361.8l2.2-2.6-2.1-2.3-2.2,2.6Z" fill="#985324"/>
          </g>
          <g id="グループ_2503" data-name="グループ 2503">
            <path id="パス_18573" data-name="パス 18573" d="M860.6,4358.3v-4.5l-1.9,2.4Z" fill="#985324"/>
          </g>
          <g id="グループ_2504" data-name="グループ 2504">
            <path id="パス_18574" data-name="パス 18574" d="M858,4349.6l1.9-2.2-1.8-1.9-1.9,2.2Z" fill="#985324"/>
          </g>
          <g id="グループ_2505" data-name="グループ 2505">
            <path id="パス_18575" data-name="パス 18575" d="M855.4,4318.5v4.8l2.1-2.5Z" fill="#985324"/>
          </g>
          <g id="グループ_2506" data-name="グループ 2506">
            <path id="パス_18576" data-name="パス 18576" d="M858,4355.5l2.1-2.4-2-2.1-2,2.4Z" fill="#985324"/>
          </g>
          <g id="グループ_2507" data-name="グループ 2507">
            <path id="パス_18577" data-name="パス 18577" d="M858.1,4339.8l-1.9,2.3,1.8,2,2-2.3Z" fill="#985324"/>
          </g>
          <g id="グループ_2508" data-name="グループ 2508">
            <path id="パス_18578" data-name="パス 18578" d="M858,4320.1l1.9-2.3-1.8-1.9-1.9,2.2Z" fill="#985324"/>
          </g>
          <g id="グループ_2509" data-name="グループ 2509">
            <path id="パス_18579" data-name="パス 18579" d="M858,4338.4l2.2-2.5-2.1-2.3-2.2,2.6Z" fill="#985324"/>
          </g>
          <g id="グループ_2510" data-name="グループ 2510">
            <path id="パス_18580" data-name="パス 18580" d="M855.4,4330.7v4.8l2.1-2.5Z" fill="#985324"/>
          </g>
          <g id="グループ_2511" data-name="グループ 2511">
            <path id="パス_18581" data-name="パス 18581" d="M855.4,4329.8Z" fill="#985324"/>
          </g>
          <g id="グループ_2512" data-name="グループ 2512">
            <path id="パス_18582" data-name="パス 18582" d="M855.4,4324.4v4.8l2.1-2.5Z" fill="#985324"/>
          </g>
          <g id="グループ_2513" data-name="グループ 2513">
            <path id="パス_18583" data-name="パス 18583" d="M835.2,4311.4h3.6l-1.9-1.5Z" fill="#985324"/>
          </g>
          <g id="グループ_2514" data-name="グループ 2514">
            <path id="パス_18584" data-name="パス 18584" d="M827.3,4307.2h-3.5l1.9,1.5Z" fill="#985324"/>
          </g>
          <g id="グループ_2515" data-name="グループ 2515">
            <path id="パス_18585" data-name="パス 18585" d="M824.1,4311.4h3.5l-1.9-1.5Z" fill="#985324"/>
          </g>
          <g id="グループ_2516" data-name="グループ 2516">
            <path id="パス_18586" data-name="パス 18586" d="M829.7,4311.4h3.6l-1.9-1.5Z" fill="#985324"/>
          </g>
          <g id="グループ_2517" data-name="グループ 2517">
            <path id="パス_18587" data-name="パス 18587" d="M833,4307.2h-3.5l1.9,1.5Z" fill="#985324"/>
          </g>
          <g id="グループ_2518" data-name="グループ 2518">
            <path id="パス_18588" data-name="パス 18588" d="M838.5,4307.2H835l1.9,1.5Z" fill="#985324"/>
          </g>
          <g id="グループ_2519" data-name="グループ 2519">
            <path id="パス_18589" data-name="パス 18589" d="M844.4,4307.2h-3.5l1.9,1.5Z" fill="#985324"/>
          </g>
          <g id="グループ_2520" data-name="グループ 2520">
            <path id="パス_18590" data-name="パス 18590" d="M850.7,4307.2h-3.5l1.9,1.5Z" fill="#985324"/>
          </g>
          <g id="グループ_2521" data-name="グループ 2521">
            <path id="パス_18591" data-name="パス 18591" d="M822.8,4307.4l-4.4,4h4.3l2.3-2.1Z" fill="#985324"/>
          </g>
          <g id="グループ_2522" data-name="グループ 2522">
            <path id="パス_18592" data-name="パス 18592" d="M832,4309.3l2.3,1.8,1.9-1.8-2.2-1.8Z" fill="#985324"/>
          </g>
          <g id="グループ_2523" data-name="グループ 2523">
            <path id="パス_18593" data-name="パス 18593" d="M837.6,4309.3l2.4,2,2.1-2-2.4-2Z" fill="#985324"/>
          </g>
          <g id="グループ_2524" data-name="グループ 2524">
            <path id="パス_18594" data-name="パス 18594" d="M826.4,4309.3l2.3,1.9,2-1.9-2.3-1.9Z" fill="#985324"/>
          </g>
          <g id="グループ_2525" data-name="グループ 2525">
            <path id="パス_18595" data-name="パス 18595" d="M845.7,4307.2l-2.2,2.1,2.6,2.1h0l2.3-2.1-2.6-2.1Z" fill="#985324"/>
          </g>
          <g id="グループ_2526" data-name="グループ 2526">
            <path id="パス_18596" data-name="パス 18596" d="M841.2,4311.4h3.5l-1.9-1.5Z" fill="#985324"/>
          </g>
          <g id="グループ_2527" data-name="グループ 2527">
            <path id="パス_18597" data-name="パス 18597" d="M854.6,4309.3l-2.6-2.1h0l-2.3,2.1,2.6,2.1Z" fill="#985324"/>
          </g>
          <g id="グループ_2528" data-name="グループ 2528">
            <path id="パス_18598" data-name="パス 18598" d="M858,4308.9l1.9-2.3v-.4h1.8v-3.6h-1.8v-3.5h-.8v-2.3h-1.9v2.3h-.8v3.5h-2.3v3.6h2.3v.9Z" fill="#985324"/>
          </g>
          <g id="グループ_2529" data-name="グループ 2529">
            <path id="パス_18599" data-name="パス 18599" d="M855.4,4318.1h0v-.4l.2-.2h0l1.8-2.2-2.1-2.2v-.9l2.1-2.5-2.3-2.4h-1.8l1.8,1.5h0v1.3l-1.6,1.5H851l-1.9-1.5-1.7,1.6h.9v6.4h-1.5v1h8.5v-1Zm-1-5.7v4.9h-5.1v-4.9Z" fill="#985324"/>
          </g>
          <g id="グループ_2530" data-name="グループ 2530">
            <path id="パス_18600" data-name="パス 18600" d="M881.8,4307.2h-5.3l-2.6,2.1,2.3,2.1h.7v9.2h.8v-4.8h.5v4.8h.9v-4.8h.4v4.8h.9v-4.8h.6v4.8h.8v-4.8h0Z" fill="#985324"/>
          </g>
        </g>
        <g id="グループ_2537" data-name="グループ 2537">
          <g id="グループ_2532" data-name="グループ 2532">
            <path id="パス_18601" data-name="パス 18601" d="M806.3,4367.2H791.9v2.9h1.3v-1.4h12.2v2.1h7.8v.9h3.5a3.4,3.4,0,0,1,6.8,0h.6v-7.5l-3.4-5.2h-7.4v8.2Z" fill="#c69e62"/>
          </g>
          <g id="グループ_2533" data-name="グループ 2533">
            <path id="パス_18602" data-name="パス 18602" d="M810.2,4358.4l.8-2.9h4.3v1.5h-1.9l-3.2,9.4H788.1v-8Z" fill="#c69e62"/>
          </g>
          <g id="グループ_2534" data-name="グループ 2534">
            <path id="パス_18603" data-name="パス 18603" d="M799.9,4371.7a2.648,2.648,0,0,0,2.6,2.6,2.6,2.6,0,0,0,0-5.2A2.647,2.647,0,0,0,799.9,4371.7Zm.8,0a1.9,1.9,0,1,1,1.9,1.9A1.839,1.839,0,0,1,800.7,4371.7Z" fill="#c69e62"/>
          </g>
          <g id="グループ_2535" data-name="グループ 2535">
            <path id="パス_18604" data-name="パス 18604" d="M817.5,4371.7a2.648,2.648,0,0,0,2.6,2.6,2.6,2.6,0,0,0,0-5.2A2.647,2.647,0,0,0,817.5,4371.7Z" fill="#c69e62"/>
          </g>
          <g id="グループ_2536" data-name="グループ 2536">
            <path id="パス_18605" data-name="パス 18605" d="M793.8,4371.7a2.648,2.648,0,0,0,2.6,2.6,2.6,2.6,0,0,0,0-5.2A2.647,2.647,0,0,0,793.8,4371.7Zm.8,0a1.9,1.9,0,1,1,1.9,1.9A1.839,1.839,0,0,1,794.6,4371.7Z" fill="#c69e62"/>
          </g>
        </g>
      </g>
      <path id="パス_18606" data-name="パス 18606" d="M819.6,4360.1h.9l2.6,3.9h-3.5Z" fill="#fff1cf"/>
      <rect id="長方形_1131" data-name="長方形 1131" width="4.6" height="3.9" transform="translate(814.5 4360.1)" fill="#fff1cf"/>
      <circle id="楕円形_458" data-name="楕円形 458" cx="1.9" cy="1.9" r="1.9" transform="translate(818.2 4369.8)" fill="#fff1cf"/>
      <circle id="楕円形_459" data-name="楕円形 459" cx="1.9" cy="1.9" r="1.9" transform="translate(800.7 4369.8)" fill="#fff1cf"/>
      <circle id="楕円形_460" data-name="楕円形 460" cx="1.9" cy="1.9" r="1.9" transform="translate(794.6 4369.8)" fill="#fff1cf"/>
    </g>
    <text id="非目標場域" transform="translate(420.834 9310.213)" fill="#707070" font-size="14" font-family="YuGothicUI-Regular, Yu Gothic UI" letter-spacing="0.1em"><tspan x="0" y="0">非目標場域</tspan></text>
    <text id="最佳降噪25_50dB" data-name="最佳降噪25~50dB" transform="translate(639.821 9310.213)" fill="#707070" font-size="14" font-family="YuGothicUI-Regular, Yu Gothic UI" letter-spacing="0.1em"><tspan x="0" y="0">最佳降噪</tspan><tspan y="0" font-family="SegoeUI, Segoe UI">25~50dB</tspan></text>
    <rect id="長方形_1135" data-name="長方形 1135" width="128.4" height="23.1" transform="translate(894.7 9301.123)" fill="none"/>
    <text id="最佳降噪25_50dB-2" data-name="最佳降噪25~50dB" transform="translate(893.729 9312.713)" fill="#707070" font-size="14" font-family="YuGothicUI-Regular, Yu Gothic UI" letter-spacing="0.1em"><tspan x="0" y="0">最佳降噪</tspan><tspan y="0" font-family="SegoeUI, Segoe UI">25~50dB</tspan></text>
    <rect id="長方形_1136" data-name="長方形 1136" width="95.5" height="23.1" transform="translate(1145.6 9301.123)" fill="none"/>
    <text id="非目標場域-2" data-name="非目標場域" transform="translate(1160.185 9312.713)" fill="#707070" font-size="14" font-family="YuGothicUI-Regular, Yu Gothic UI" letter-spacing="0.1em"><tspan x="0" y="0">非目標場域</tspan></text>
    <rect id="長方形_1137" data-name="長方形 1137" width="179" height="101" rx="5" transform="translate(368.8 9181.223)" fill="none" stroke="#707070" stroke-miterlimit="10" stroke-width="1"/>
    <rect id="長方形_1138" data-name="長方形 1138" width="179" height="101" rx="5" transform="translate(621.8 9181.223)" fill="none" stroke="#707070" stroke-miterlimit="10" stroke-width="1"/>
    <rect id="長方形_1139" data-name="長方形 1139" width="179" height="101" rx="5" transform="translate(865.8 9177.723)" fill="none" stroke="#707070" stroke-miterlimit="10" stroke-width="1"/>
    <rect id="長方形_1140" data-name="長方形 1140" width="179" height="101" rx="5" transform="translate(1110.8 9177.723)" fill="none" stroke="#707070" stroke-miterlimit="10" stroke-width="1"/>
  </g>
</svg>
